# Wavefront OBJ file made by Mineways version 10.01, http://mineways.com
# World: [Block Test World]
# Terrain file name: D:\Application\mineways\terrainExt.png
# Color scheme: Standard
# Tue Nov 29 02:54:28 2022

# Selection location min to max: 34, 64, -4 to 34, 319, -4
#   Non-empty selection location min to max: 34, 64, -4 to 34, 64, -4

# Set render type: Wavefront OBJ absolute indices
# Units for the model vertex data itself: meters

# 24 vertices, 17 faces (34 triangles), 0 blocks, 3 billboards/bits
# block dimensions: X=2 by Y=2 (height) by Z=2 blocks
# Elevation shading: no
# Lighting: no
# Transparent water: no
# Map grid: no
# File type: Export all textures to three large images
# Texture output RGB: YES
# Texture output A: YES
# Texture output RGBA: YES
# Make groups objects: YES
# Export separate objects: no
# Individual blocks: no
#   Split by block type: no
# G3D full material: YES
# Make Z the up direction instead of Y: no
# Create composite overlay faces: no
# Center model: YES
# Export lesser blocks: YES
# Fatten lesser blocks: no
# Create block faces at the borders: YES
# Make tree leaves solid: no
# Use biomes: no
# Rotate model 0.000000 degrees
# Scale model by making each block 1000 mm high
# Data operation options:
#   Fill air bubbles: no; Seal off entrances: no; Fill in isolated tunnels in base of model: no
#   Connect parts sharing an edge: no; Connect corner tips: no; Weld all shared edges: no
#   Delete floating objects: trees and parts smaller than 16 blocks: no
#   Hollow out bottom of model, making the walls 1000 mm thick: no; Superhollow: no
# Melt snow blocks: no
#   Debug: show separate parts as colors: no
#   Debug: show weld blocks in bright colors: no

# Full world path: D:\Minecraft\PCL\.minecraft\versions\1.18.2\saves\
# Full terrainExt.png path: D:\Application\mineways\terrainExt.png
# Full current path: D:\Application\mineways

mtllib Minecraft.mtl
vn -1 0 0
vn 0 -1 0
vn 0 0 -1
vn 1 0 0
vn 0 1 0
vn 0 0 1
vn -0.707107 0 -0.707107
vn -0.707107 0 0.707107
vn 0.707107 0 -0.707107
vn 0.707107 0 0.707107
vn -0.707107 -0.707107 0
vn 0 -0.707107 -0.707107
vn 0.707107 -0.707107 0
vn 0 -0.707107 0.707107
vn -0.707107 0.707107 0
vn 0 0.707107 -0.707107
vn 0.707107 0.707107 0
vn 0 0.707107 0.707107
vn -0.92388 0 -0.382683
vn -0.92388 0 0.382683
vn 0.92388 0 -0.382683
vn 0.92388 0 0.382683
vn -0.382683 0 -0.92388
vn -0.382683 0 0.92388
vn 0.382683 0 -0.92388
vn 0.382683 0 0.92388
vn -0.397273 0.9177 0
vn 0.397273 -0.9177 0
vn 0.397273 0.9177 0
vn -0.397273 -0.9177 0
vn 0 0.9177 -0.397273
vn 0 -0.9177 0.397273
vn 0 0.9177 0.397273
vn 0 -0.9177 -0.397273
vn -0.440932 0.897541 0
vn 0.440932 -0.897541 0
vn 0.440932 0.897541 0
vn -0.440932 -0.897541 0
vn 0 0.897541 -0.440932
vn 0 -0.897541 0.440932
vn 0 0.897541 0.440932
vn 0 -0.897541 -0.440932
# glass
vt 0.862304688 0.983398438
vt 0.877929688 0.983398438
vt 0.877929688 0.999023438
vt 0.862304688 0.999023438
# beacon
vt 0.197265625 0.916015625
vt 0.207031250 0.916015625
vt 0.207031250 0.925781250
vt 0.197265625 0.925781250
# obsidian
vt 0.653320312 0.983398438
vt 0.665039062 0.983398438
vt 0.665039062 0.986328125
vt 0.653320312 0.986328125
vt 0.653320312 0.985351562
vt 0.665039062 0.985351562
vt 0.665039062 0.997070312
vt 0.653320312 0.997070312
v 0 0 0
v 0 0 1
v 0 1 0
v 0 1 1
v 1 0 0
v 1 0 1
v 1 1 0
v 1 1 1
v 0.1875 0.1875 0.1875
v 0.1875 0.1875 0.8125
v 0.1875 0.8125 0.1875
v 0.1875 0.8125 0.8125
v 0.8125 0.1875 0.1875
v 0.8125 0.1875 0.8125
v 0.8125 0.8125 0.1875
v 0.8125 0.8125 0.8125
v 0.125 0 0.125
v 0.125 0 0.875
v 0.125 0.1875 0.125
v 0.125 0.1875 0.875
v 0.875 0 0.125
v 0.875 0 0.875
v 0.875 0.1875 0.125
v 0.875 0.1875 0.875

usemtl MC_material
f 3/4/1 1/1/1 2/2/1 4/3/1
f 2/1/2 1/4/2 5/3/2 6/2/2
f 7/4/3 5/1/3 1/2/3 3/3/3
f 7/3/4 8/4/4 6/1/4 5/2/4
f 7/3/5 3/4/5 4/1/5 8/2/5
f 8/3/6 4/4/6 2/1/6 6/2/6
f 19/12/1 17/9/1 18/10/1 20/11/1
f 18/13/2 17/16/2 21/15/2 22/14/2
f 23/12/3 21/9/3 17/10/3 19/11/3
f 23/11/4 24/12/4 22/9/4 21/10/4
f 23/15/5 19/16/5 20/13/5 24/14/5
f 24/11/6 20/12/6 18/9/6 22/10/6
f 11/8/1 9/5/1 10/6/1 12/7/1
f 15/8/3 13/5/3 9/6/3 11/7/3
f 15/7/4 16/8/4 14/5/4 13/6/4
f 15/7/5 11/8/5 12/5/5 16/6/5
f 16/7/6 12/8/6 10/5/6 14/6/6
