# Wavefront OBJ file made by Mineways version 10.01, http://mineways.com
# World: [Block Test World]
# Terrain file name: D:\Application\mineways\terrainExt.png
# Color scheme: Standard
# Fri Oct 14 20:47:04 2022

# Selection location min to max: 4, 78, -145 to 4, 89, -145
#   Non-empty selection location min to max: 4, 78, -145 to 4, 89, -145

# Set render type: Wavefront OBJ absolute indices
# Units for the model vertex data itself: meters

# 144 vertices, 84 faces (168 triangles), 0 blocks, 42 billboards/bits
# block dimensions: X=2 by Y=13 (height) by Z=2 blocks
# Elevation shading: no
# Lighting: no
# Transparent water: no
# Map grid: no
# File type: Export all textures to three large images
# Texture output RGB: YES
# Texture output A: YES
# Texture output RGBA: YES
# Make groups objects: no
# Export separate objects: no
# Individual blocks: no
#   Split by block type: no
# G3D full material: YES
# Make Z the up direction instead of Y: no
# Create composite overlay faces: no
# Center model: YES
# Export lesser blocks: YES
# Fatten lesser blocks: no
# Create block faces at the borders: YES
# Make tree leaves solid: no
# Use biomes: no
# Rotate model 0.000000 degrees
# Scale model by making each block 1000 mm high
# Data operation options:
#   Fill air bubbles: no; Seal off entrances: no; Fill in isolated tunnels in base of model: no
#   Connect parts sharing an edge: no; Connect corner tips: no; Weld all shared edges: no
#   Delete floating objects: trees and parts smaller than 16 blocks: no
#   Hollow out bottom of model, making the walls 1000 mm thick: no; Superhollow: no
# Melt snow blocks: no
#   Debug: show separate parts as colors: no
#   Debug: show weld blocks in bright colors: no

# Full world path: D:\Minecraft\PCL\.minecraft\versions\1.18.2\saves\
# Full terrainExt.png path: D:\Application\mineways\terrainExt.png
# Full current path: D:\Application\mineways

mtllib Minecraft.mtl

o __4_78_-145_to_4_89_-145
vn -1 0 0
vn 0 -1 0
vn 0 0 -1
vn 1 0 0
vn 0 1 0
vn 0 0 1
vn -0.707107 0 -0.707107
vn -0.707107 0 0.707107
vn 0.707107 0 -0.707107
vn 0.707107 0 0.707107
vn -0.707107 -0.707107 0
vn 0 -0.707107 -0.707107
vn 0.707107 -0.707107 0
vn 0 -0.707107 0.707107
vn -0.707107 0.707107 0
vn 0 0.707107 -0.707107
vn 0.707107 0.707107 0
vn 0 0.707107 0.707107
vn -0.92388 0 -0.382683
vn -0.92388 0 0.382683
vn 0.92388 0 -0.382683
vn 0.92388 0 0.382683
vn -0.382683 0 -0.92388
vn -0.382683 0 0.92388
vn 0.382683 0 -0.92388
vn 0.382683 0 0.92388
vn -0.397273 0.9177 0
vn 0.397273 -0.9177 0
vn 0.397273 0.9177 0
vn -0.397273 -0.9177 0
vn 0 0.9177 -0.397273
vn 0 -0.9177 0.397273
vn 0 0.9177 0.397273
vn 0 -0.9177 -0.397273
vn -0.440932 0.897541 0
vn 0.440932 -0.897541 0
vn 0.440932 0.897541 0
vn -0.440932 -0.897541 0
vn 0 0.897541 -0.440932
vn 0 -0.897541 0.440932
vn 0 0.897541 0.440932
vn 0 -0.897541 -0.440932
# bamboo_stalk
vt 0.745117188 0.807617188
vt 0.748046875 0.807617188
vt 0.748046875 0.823242188
vt 0.745117188 0.823242188
vt 0.751953125 0.807617188
vt 0.754882812 0.807617188
vt 0.754882812 0.810546875
vt 0.751953125 0.810546875
vt 0.742187500 0.807617188
vt 0.742187500 0.823242188
vt 0.739257812 0.807617188
vt 0.739257812 0.823242188
vt 0.750976562 0.807617188
vt 0.750976562 0.823242188
# bamboo_small_leaves
vt 0.704101562 0.807617188
vt 0.719726562 0.807617188
vt 0.719726562 0.823242188
vt 0.704101562 0.823242188
# bamboo_large_leaves
vt 0.668945312 0.807617188
vt 0.684570312 0.807617188
vt 0.684570312 0.823242188
vt 0.668945312 0.823242188
v 0.462145 0 0.288556
v 0.462145 0 0.476056
v 0.462145 1 0.288556
v 0.462145 1 0.476056
v 0.649645 0 0.288556
v 0.649645 0 0.476056
v 0.649645 1 0.288556
v 0.649645 1 0.476056
v 0.462145 1 0.288556
v 0.462145 1 0.476056
v 0.462145 2 0.288556
v 0.462145 2 0.476056
v 0.649645 1 0.288556
v 0.649645 1 0.476056
v 0.649645 2 0.288556
v 0.649645 2 0.476056
v 0.462145 2 0.288556
v 0.462145 2 0.476056
v 0.462145 3 0.288556
v 0.462145 3 0.476056
v 0.649645 2 0.288556
v 0.649645 2 0.476056
v 0.649645 3 0.288556
v 0.649645 3 0.476056
v 0.462145 3 0.288556
v 0.462145 3 0.476056
v 0.462145 4 0.288556
v 0.462145 4 0.476056
v 0.649645 3 0.288556
v 0.649645 3 0.476056
v 0.649645 4 0.288556
v 0.649645 4 0.476056
v 0.462145 4 0.288556
v 0.462145 4 0.476056
v 0.462145 5 0.288556
v 0.462145 5 0.476056
v 0.649645 4 0.288556
v 0.649645 4 0.476056
v 0.649645 5 0.288556
v 0.649645 5 0.476056
v 0.462145 5 0.288556
v 0.462145 5 0.476056
v 0.462145 6 0.288556
v 0.462145 6 0.476056
v 0.649645 5 0.288556
v 0.649645 5 0.476056
v 0.649645 6 0.288556
v 0.649645 6 0.476056
v 0.462145 6 0.288556
v 0.462145 6 0.476056
v 0.462145 7 0.288556
v 0.462145 7 0.476056
v 0.649645 6 0.288556
v 0.649645 6 0.476056
v 0.649645 7 0.288556
v 0.649645 7 0.476056
v 0.462145 7 0.288556
v 0.462145 7 0.476056
v 0.462145 8 0.288556
v 0.462145 8 0.476056
v 0.649645 7 0.288556
v 0.649645 7 0.476056
v 0.649645 8 0.288556
v 0.649645 8 0.476056
v 0.462145 8 0.288556
v 0.462145 8 0.476056
v 0.462145 9 0.288556
v 0.462145 9 0.476056
v 0.649645 8 0.288556
v 0.649645 8 0.476056
v 0.649645 9 0.288556
v 0.649645 9 0.476056
v 0.462145 9 0.288556
v 0.462145 9 0.476056
v 0.462145 10 0.288556
v 0.462145 10 0.476056
v 0.649645 9 0.288556
v 0.649645 9 0.476056
v 0.649645 10 0.288556
v 0.649645 10 0.476056
v 0.555895 9 -0.148944
v 0.555895 9 -0.148944
v 0.555895 10 -0.148944
v 0.555895 10 -0.148944
v 0.555895 9 0.851056
v 0.555895 9 0.851056
v 0.555895 10 0.851056
v 0.555895 10 0.851056
v 0.0558953 9 0.351056
v 0.0558953 9 0.351056
v 0.0558953 10 0.351056
v 0.0558953 10 0.351056
v 1.0559 9 0.351056
v 1.0559 9 0.351056
v 1.0559 10 0.351056
v 1.0559 10 0.351056
v 0.462145 10 0.288556
v 0.462145 10 0.476056
v 0.462145 11 0.288556
v 0.462145 11 0.476056
v 0.649645 10 0.288556
v 0.649645 10 0.476056
v 0.649645 11 0.288556
v 0.649645 11 0.476056
v 0.555895 10 -0.148944
v 0.555895 10 -0.148944
v 0.555895 11 -0.148944
v 0.555895 11 -0.148944
v 0.555895 10 0.851056
v 0.555895 10 0.851056
v 0.555895 11 0.851056
v 0.555895 11 0.851056
v 0.0558953 10 0.351056
v 0.0558953 10 0.351056
v 0.0558953 11 0.351056
v 0.0558953 11 0.351056
v 1.0559 10 0.351056
v 1.0559 10 0.351056
v 1.0559 11 0.351056
v 1.0559 11 0.351056
v 0.462145 11 0.288556
v 0.462145 11 0.476056
v 0.462145 12 0.288556
v 0.462145 12 0.476056
v 0.649645 11 0.288556
v 0.649645 11 0.476056
v 0.649645 12 0.288556
v 0.649645 12 0.476056
v 0.555895 11 -0.148944
v 0.555895 11 -0.148944
v 0.555895 12 -0.148944
v 0.555895 12 -0.148944
v 0.555895 11 0.851056
v 0.555895 11 0.851056
v 0.555895 12 0.851056
v 0.555895 12 0.851056
v 0.0558953 11 0.351056
v 0.0558953 11 0.351056
v 0.0558953 12 0.351056
v 0.0558953 12 0.351056
v 1.0559 11 0.351056
v 1.0559 11 0.351056
v 1.0559 12 0.351056
v 1.0559 12 0.351056

usemtl MC_material
f 3/4/1 1/1/1 2/2/1 4/3/1
f 8/3/6 4/4/6 2/1/6 6/2/6
f 7/4/3 5/1/3 1/2/3 3/3/3
f 7/3/4 8/4/4 6/1/4 5/2/4
f 2/5/2 1/8/2 5/7/2 6/6/2
f 7/7/5 3/8/5 4/5/5 8/6/5
f 11/4/1 9/1/1 10/2/1 12/3/1
f 16/3/6 12/4/6 10/1/6 14/2/6
f 15/4/3 13/1/3 9/2/3 11/3/3
f 15/3/4 16/4/4 14/1/4 13/2/4
f 10/5/2 9/8/2 13/7/2 14/6/2
f 15/7/5 11/8/5 12/5/5 16/6/5
f 19/10/1 17/9/1 18/1/1 20/4/1
f 24/4/6 20/10/6 18/9/6 22/1/6
f 23/10/3 21/9/3 17/1/3 19/4/3
f 23/4/4 24/10/4 22/9/4 21/1/4
f 18/5/2 17/8/2 21/7/2 22/6/2
f 23/7/5 19/8/5 20/5/5 24/6/5
f 27/4/1 25/1/1 26/2/1 28/3/1
f 32/3/6 28/4/6 26/1/6 30/2/6
f 31/4/3 29/1/3 25/2/3 27/3/3
f 31/3/4 32/4/4 30/1/4 29/2/4
f 26/5/2 25/8/2 29/7/2 30/6/2
f 31/7/5 27/8/5 28/5/5 32/6/5
f 35/10/1 33/9/1 34/1/1 36/4/1
f 40/4/6 36/10/6 34/9/6 38/1/6
f 39/10/3 37/9/3 33/1/3 35/4/3
f 39/4/4 40/10/4 38/9/4 37/1/4
f 34/5/2 33/8/2 37/7/2 38/6/2
f 39/7/5 35/8/5 36/5/5 40/6/5
f 43/12/1 41/11/1 42/9/1 44/10/1
f 48/10/6 44/12/6 42/11/6 46/9/6
f 47/12/3 45/11/3 41/9/3 43/10/3
f 47/10/4 48/12/4 46/11/4 45/9/4
f 42/5/2 41/8/2 45/7/2 46/6/2
f 47/7/5 43/8/5 44/5/5 48/6/5
f 51/12/1 49/11/1 50/9/1 52/10/1
f 56/10/6 52/12/6 50/11/6 54/9/6
f 55/12/3 53/11/3 49/9/3 51/10/3
f 55/10/4 56/12/4 54/11/4 53/9/4
f 50/5/2 49/8/2 53/7/2 54/6/2
f 55/7/5 51/8/5 52/5/5 56/6/5
f 59/10/1 57/9/1 58/1/1 60/4/1
f 64/4/6 60/10/6 58/9/6 62/1/6
f 63/10/3 61/9/3 57/1/3 59/4/3
f 63/4/4 64/10/4 62/9/4 61/1/4
f 58/5/2 57/8/2 61/7/2 62/6/2
f 63/7/5 59/8/5 60/5/5 64/6/5
f 67/3/1 65/2/1 66/13/1 68/14/1
f 72/14/6 68/3/6 66/2/6 70/13/6
f 71/3/3 69/2/3 65/13/3 67/14/3
f 71/14/4 72/3/4 70/2/4 69/13/4
f 66/5/2 65/8/2 69/7/2 70/6/2
f 71/7/5 67/8/5 68/5/5 72/6/5
f 75/10/1 73/9/1 74/1/1 76/4/1
f 80/4/6 76/10/6 74/9/6 78/1/6
f 79/10/3 77/9/3 73/1/3 75/4/3
f 79/4/4 80/10/4 78/9/4 77/1/4
f 74/5/2 73/8/2 77/7/2 78/6/2
f 79/7/5 75/8/5 76/5/5 80/6/5
f 83/18/4 87/17/4 85/16/4 81/15/4
f 84/18/1 82/15/1 86/16/1 88/17/1
f 95/17/3 93/16/3 89/15/3 91/18/3
f 96/17/6 92/18/6 90/15/6 94/16/6
f 99/12/1 97/11/1 98/9/1 100/10/1
f 104/10/6 100/12/6 98/11/6 102/9/6
f 103/12/3 101/11/3 97/9/3 99/10/3
f 103/10/4 104/12/4 102/11/4 101/9/4
f 98/5/2 97/8/2 101/7/2 102/6/2
f 103/7/5 99/8/5 100/5/5 104/6/5
f 107/22/4 111/21/4 109/20/4 105/19/4
f 108/22/1 106/19/1 110/20/1 112/21/1
f 119/21/3 117/20/3 113/19/3 115/22/3
f 120/21/6 116/22/6 114/19/6 118/20/6
f 123/3/1 121/2/1 122/13/1 124/14/1
f 128/14/6 124/3/6 122/2/6 126/13/6
f 127/3/3 125/2/3 121/13/3 123/14/3
f 127/14/4 128/3/4 126/2/4 125/13/4
f 122/5/2 121/8/2 125/7/2 126/6/2
f 127/7/5 123/8/5 124/5/5 128/6/5
f 131/22/4 135/21/4 133/20/4 129/19/4
f 132/22/1 130/19/1 134/20/1 136/21/1
f 143/21/3 141/20/3 137/19/3 139/22/3
f 144/21/6 140/22/6 138/19/6 142/20/6
