# Wavefront OBJ file made by Mineways version 10.01, http://mineways.com
# World:  (2)
# Terrain file name: D:\Application\mineways\terrainExt.png
# Color scheme: Standard
# Fri Oct 14 16:41:51 2022

# Selection location min to max: 4, -60, -2 to 9, 319, 2
#   Non-empty selection location min to max: 4, -60, -2 to 8, -54, 2

# Set render type: Wavefront OBJ absolute indices
# Units for the model vertex data itself: meters

# 138 vertices, 325 faces (650 triangles), 58 blocks, 0 billboards/bits
# block dimensions: X=5 by Y=7 (height) by Z=5 blocks
# Elevation shading: no
# Lighting: no
# Transparent water: no
# Map grid: no
# File type: Export all textures to three large images
# Texture output RGB: YES
# Texture output A: YES
# Texture output RGBA: YES
# Make groups objects: no
# Export separate objects: YES
# Individual blocks: no
#   Material per family: YES
#   Split by block type: YES
# G3D full material: YES
# Make Z the up direction instead of Y: no
# Create composite overlay faces: no
# Center model: YES
# Export lesser blocks: YES
# Fatten lesser blocks: no
# Create block faces at the borders: YES
# Make tree leaves solid: no
# Use biomes: no
# Rotate model 0.000000 degrees
# Scale model by making each block 1000 mm high
# Data operation options:
#   Fill air bubbles: no; Seal off entrances: no; Fill in isolated tunnels in base of model: no
#   Connect parts sharing an edge: no; Connect corner tips: no; Weld all shared edges: no
#   Delete floating objects: trees and parts smaller than 16 blocks: no
#   Hollow out bottom of model, making the walls 1000 mm thick: no; Superhollow: no
# Melt snow blocks: no
#   Debug: show separate parts as colors: no
#   Debug: show weld blocks in bright colors: no

# Full world path: D:\Minecraft\PCL\.minecraft\versions\1.18.2\saves\ (2)
# Full terrainExt.png path: D:\Application\mineways\terrainExt.png
# Full current path: D:\Application\mineways

mtllib Minecraft.mtl

o _(2)__4_-60_-2_to_9_319_2
vn -1 0 0
vn 0 -1 0
vn 0 0 -1
vn 1 0 0
vn 0 1 0
vn 0 0 1
vn -0.707107 0 -0.707107
vn -0.707107 0 0.707107
vn 0.707107 0 -0.707107
vn 0.707107 0 0.707107
vn -0.707107 -0.707107 0
vn 0 -0.707107 -0.707107
vn 0.707107 -0.707107 0
vn 0 -0.707107 0.707107
vn -0.707107 0.707107 0
vn 0 0.707107 -0.707107
vn 0.707107 0.707107 0
vn 0 0.707107 0.707107
vn -0.92388 0 -0.382683
vn -0.92388 0 0.382683
vn 0.92388 0 -0.382683
vn 0.92388 0 0.382683
vn -0.382683 0 -0.92388
vn -0.382683 0 0.92388
vn 0.382683 0 -0.92388
vn 0.382683 0 0.92388
vn -0.397273 0.9177 0
vn 0.397273 -0.9177 0
vn 0.397273 0.9177 0
vn -0.397273 -0.9177 0
vn 0 0.9177 -0.397273
vn 0 -0.9177 0.397273
vn 0 0.9177 0.397273
vn 0 -0.9177 -0.397273
vn -0.440932 0.897541 0
vn 0.440932 -0.897541 0
vn 0.440932 0.897541 0
vn -0.440932 -0.897541 0
vn 0 0.897541 -0.440932
vn 0 -0.897541 0.440932
vn 0 0.897541 0.440932
vn 0 -0.897541 -0.440932
# birch_leaves
vt 0.932617188 0.930664062
vt 0.948242188 0.930664062
vt 0.948242188 0.946289062
vt 0.932617188 0.946289062
# birch_log
vt 0.088867188 0.948242188
vt 0.104492188 0.948242188
vt 0.104492188 0.963867188
vt 0.088867188 0.963867188
# birch_log_top
vt 0.334960938 0.930664062
vt 0.350585938 0.930664062
vt 0.350585938 0.946289062
vt 0.334960938 0.946289062
v -3 3 -2
v -3 3 -1
v -3 4 -1
v -3 4 -2
v -2 3 -1
v -2 3 -2
v -2 4 -2
v -2 4 -1
v -3 3 0
v -3 4 0
v -2 3 0
v -2 4 0
v -3 5 0
v -3 5 -1
v -2 5 -1
v -2 5 0
v -3 3 1
v -3 4 1
v -2 3 1
v -2 4 1
v -3 5 1
v -2 5 1
v -3 3 2
v -3 4 2
v -2 3 2
v -2 4 2
v -3 5 2
v -2 5 2
v -1 3 -1
v -1 3 -2
v -1 4 -2
v -1 4 -1
v -2 5 -2
v -1 5 -2
v -1 5 -1
v -1 3 0
v -1 4 0
v -1 5 0
v -1 3 1
v -1 4 1
v -1 5 1
v -2 6 1
v -2 6 0
v -1 6 0
v -1 6 1
v -2 7 1
v -2 7 0
v -1 7 0
v -1 7 1
v -1 3 2
v -1 4 2
v -1 5 2
v -2 3 3
v -2 4 3
v -1 3 3
v -1 4 3
v -2 5 3
v -1 5 3
v 0 3 -1
v 0 3 -2
v 0 4 -2
v 0 4 -1
v 0 5 -2
v 0 5 -1
v 0 3 0
v 0 4 0
v 0 5 0
v -1 6 -1
v 0 6 -1
v 0 6 0
v -1 7 -1
v 0 7 -1
v 0 7 0
v -1 0 0
v -1 0 1
v -1 1 1
v -1 1 0
v 0 0 1
v 0 0 0
v 0 1 0
v 0 1 1
v -1 2 1
v -1 2 0
v 0 2 0
v 0 2 1
v 0 3 1
v 0 4 1
v 0 5 1
v 0 6 1
v 0 7 1
v 0 3 2
v 0 4 2
v 0 5 2
v -1 6 2
v 0 6 2
v -1 7 2
v 0 7 2
v 0 3 3
v 0 4 3
v 0 5 3
v 1 3 -1
v 1 3 -2
v 1 4 -2
v 1 4 -1
v 1 5 -2
v 1 5 -1
v 1 3 0
v 1 4 0
v 1 5 0
v 1 3 1
v 1 4 1
v 1 5 1
v 1 6 0
v 1 6 1
v 1 7 0
v 1 7 1
v 1 3 2
v 1 4 2
v 1 5 2
v 1 3 3
v 1 4 3
v 1 5 3
v 2 3 -1
v 2 3 -2
v 2 4 -2
v 2 4 -1
v 2 3 0
v 2 4 0
v 2 5 -1
v 2 5 0
v 2 3 1
v 2 4 1
v 2 5 1
v 2 3 2
v 2 4 2
v 2 5 2
v 2 4 3
v 2 5 3

g Birch_Log
usemtl Birch_Log
f 75/6/1 76/7/1 77/8/1 74/5/1
f 75/9/2 74/12/2 79/11/2 78/10/2
f 74/6/3 77/7/3 80/8/3 79/5/3
f 78/5/4 79/6/4 80/7/4 81/8/4
f 75/5/6 78/6/6 81/7/6 76/8/6
f 76/6/1 82/7/1 83/8/1 77/5/1
f 77/6/3 83/7/3 84/8/3 80/5/3
f 81/5/4 80/6/4 84/7/4 85/8/4
f 76/5/6 81/6/6 85/7/6 82/8/6
f 82/6/1 39/7/1 36/8/1 83/5/1
f 83/6/3 36/7/3 65/8/3 84/5/3
f 85/5/4 84/6/4 65/7/4 86/8/4
f 82/5/6 85/6/6 86/7/6 39/8/6
f 39/6/1 40/7/1 37/8/1 36/5/1
f 36/6/3 37/7/3 66/8/3 65/5/3
f 86/5/4 65/6/4 66/7/4 87/8/4
f 39/5/6 86/6/6 87/7/6 40/8/6
f 40/6/1 41/7/1 38/8/1 37/5/1
f 37/6/3 38/7/3 67/8/3 66/5/3
f 87/5/4 66/6/4 67/7/4 88/8/4
f 40/5/6 87/6/6 88/7/6 41/8/6
f 41/6/1 45/7/1 44/8/1 38/5/1
f 38/6/3 44/7/3 70/8/3 67/5/3
f 88/5/4 67/6/4 70/7/4 89/8/4
f 45/9/5 89/10/5 70/11/5 44/12/5
f 41/5/6 88/6/6 89/7/6 45/8/6

g Birch_Leaves
usemtl Birch_Leaves
f 2/2/1 3/3/1 4/4/1 1/1/1
f 2/1/2 1/4/2 6/3/2 5/2/2
f 1/2/3 4/3/3 7/4/3 6/1/3
f 5/1/4 6/2/4 7/3/4 8/4/4
f 3/1/5 8/2/5 7/3/5 4/4/5
f 2/1/6 5/2/6 8/3/6 3/4/6
f 9/2/1 10/3/1 3/4/1 2/1/1
f 9/1/2 2/4/2 5/3/2 11/2/2
f 2/2/3 3/3/3 8/4/3 5/1/3
f 11/1/4 5/2/4 8/3/4 12/4/4
f 10/1/5 12/2/5 8/3/5 3/4/5
f 9/1/6 11/2/6 12/3/6 10/4/6
f 10/2/1 13/3/1 14/4/1 3/1/1
f 10/1/2 3/4/2 8/3/2 12/2/2
f 3/2/3 14/3/3 15/4/3 8/1/3
f 12/1/4 8/2/4 15/3/4 16/4/4
f 13/1/5 16/2/5 15/3/5 14/4/5
f 10/1/6 12/2/6 16/3/6 13/4/6
f 17/2/1 18/3/1 10/4/1 9/1/1
f 17/1/2 9/4/2 11/3/2 19/2/2
f 9/2/3 10/3/3 12/4/3 11/1/3
f 19/1/4 11/2/4 12/3/4 20/4/4
f 18/1/5 20/2/5 12/3/5 10/4/5
f 17/1/6 19/2/6 20/3/6 18/4/6
f 18/2/1 21/3/1 13/4/1 10/1/1
f 18/1/2 10/4/2 12/3/2 20/2/2
f 10/2/3 13/3/3 16/4/3 12/1/3
f 20/1/4 12/2/4 16/3/4 22/4/4
f 21/1/5 22/2/5 16/3/5 13/4/5
f 18/1/6 20/2/6 22/3/6 21/4/6
f 23/2/1 24/3/1 18/4/1 17/1/1
f 23/1/2 17/4/2 19/3/2 25/2/2
f 17/2/3 18/3/3 20/4/3 19/1/3
f 25/1/4 19/2/4 20/3/4 26/4/4
f 24/1/5 26/2/5 20/3/5 18/4/5
f 23/1/6 25/2/6 26/3/6 24/4/6
f 24/2/1 27/3/1 21/4/1 18/1/1
f 24/1/2 18/4/2 20/3/2 26/2/2
f 18/2/3 21/3/3 22/4/3 20/1/3
f 26/1/4 20/2/4 22/3/4 28/4/4
f 27/1/5 28/2/5 22/3/5 21/4/5
f 24/1/6 26/2/6 28/3/6 27/4/6
f 5/2/1 8/3/1 7/4/1 6/1/1
f 5/1/2 6/4/2 30/3/2 29/2/2
f 6/2/3 7/3/3 31/4/3 30/1/3
f 29/1/4 30/2/4 31/3/4 32/4/4
f 8/1/5 32/2/5 31/3/5 7/4/5
f 5/1/6 29/2/6 32/3/6 8/4/6
f 8/2/1 15/3/1 33/4/1 7/1/1
f 8/1/2 7/4/2 31/3/2 32/2/2
f 7/2/3 33/3/3 34/4/3 31/1/3
f 32/1/4 31/2/4 34/3/4 35/4/4
f 15/1/5 35/2/5 34/3/5 33/4/5
f 8/1/6 32/2/6 35/3/6 15/4/6
f 11/2/1 12/3/1 8/4/1 5/1/1
f 11/1/2 5/4/2 29/3/2 36/2/2
f 5/2/3 8/3/3 32/4/3 29/1/3
f 36/1/4 29/2/4 32/3/4 37/4/4
f 12/1/5 37/2/5 32/3/5 8/4/5
f 11/1/6 36/2/6 37/3/6 12/4/6
f 12/2/1 16/3/1 15/4/1 8/1/1
f 12/1/2 8/4/2 32/3/2 37/2/2
f 8/2/3 15/3/3 35/4/3 32/1/3
f 37/1/4 32/2/4 35/3/4 38/4/4
f 16/1/5 38/2/5 35/3/5 15/4/5
f 12/1/6 37/2/6 38/3/6 16/4/6
f 19/2/1 20/3/1 12/4/1 11/1/1
f 19/1/2 11/4/2 36/3/2 39/2/2
f 11/2/3 12/3/3 37/4/3 36/1/3
f 20/1/5 40/2/5 37/3/5 12/4/5
f 19/1/6 39/2/6 40/3/6 20/4/6
f 20/2/1 22/3/1 16/4/1 12/1/1
f 20/1/2 12/4/2 37/3/2 40/2/2
f 12/2/3 16/3/3 38/4/3 37/1/3
f 22/1/5 41/2/5 38/3/5 16/4/5
f 20/1/6 40/2/6 41/3/6 22/4/6
f 22/2/1 42/3/1 43/4/1 16/1/1
f 22/1/2 16/4/2 38/3/2 41/2/2
f 16/2/3 43/3/3 44/4/3 38/1/3
f 42/1/5 45/2/5 44/3/5 43/4/5
f 22/1/6 41/2/6 45/3/6 42/4/6
f 42/2/1 46/3/1 47/4/1 43/1/1
f 42/1/2 43/4/2 44/3/2 45/2/2
f 43/2/3 47/3/3 48/4/3 44/1/3
f 45/1/4 44/2/4 48/3/4 49/4/4
f 46/1/5 49/2/5 48/3/5 47/4/5
f 42/1/6 45/2/6 49/3/6 46/4/6
f 25/2/1 26/3/1 20/4/1 19/1/1
f 25/1/2 19/4/2 39/3/2 50/2/2
f 19/2/3 20/3/3 40/4/3 39/1/3
f 50/1/4 39/2/4 40/3/4 51/4/4
f 26/1/5 51/2/5 40/3/5 20/4/5
f 25/1/6 50/2/6 51/3/6 26/4/6
f 26/2/1 28/3/1 22/4/1 20/1/1
f 26/1/2 20/4/2 40/3/2 51/2/2
f 20/2/3 22/3/3 41/4/3 40/1/3
f 51/1/4 40/2/4 41/3/4 52/4/4
f 28/1/5 52/2/5 41/3/5 22/4/5
f 26/1/6 51/2/6 52/3/6 28/4/6
f 53/2/1 54/3/1 26/4/1 25/1/1
f 53/1/2 25/4/2 50/3/2 55/2/2
f 25/2/3 26/3/3 51/4/3 50/1/3
f 55/1/4 50/2/4 51/3/4 56/4/4
f 54/1/5 56/2/5 51/3/5 26/4/5
f 53/1/6 55/2/6 56/3/6 54/4/6
f 54/2/1 57/3/1 28/4/1 26/1/1
f 54/1/2 26/4/2 51/3/2 56/2/2
f 26/2/3 28/3/3 52/4/3 51/1/3
f 56/1/4 51/2/4 52/3/4 58/4/4
f 57/1/5 58/2/5 52/3/5 28/4/5
f 54/1/6 56/2/6 58/3/6 57/4/6
f 29/2/1 32/3/1 31/4/1 30/1/1
f 29/1/2 30/4/2 60/3/2 59/2/2
f 30/2/3 31/3/3 61/4/3 60/1/3
f 59/1/4 60/2/4 61/3/4 62/4/4
f 32/1/5 62/2/5 61/3/5 31/4/5
f 29/1/6 59/2/6 62/3/6 32/4/6
f 32/2/1 35/3/1 34/4/1 31/1/1
f 32/1/2 31/4/2 61/3/2 62/2/2
f 31/2/3 34/3/3 63/4/3 61/1/3
f 62/1/4 61/2/4 63/3/4 64/4/4
f 35/1/5 64/2/5 63/3/5 34/4/5
f 32/1/6 62/2/6 64/3/6 35/4/6
f 36/2/1 37/3/1 32/4/1 29/1/1
f 36/1/2 29/4/2 59/3/2 65/2/2
f 29/2/3 32/3/3 62/4/3 59/1/3
f 65/1/4 59/2/4 62/3/4 66/4/4
f 37/1/5 66/2/5 62/3/5 32/4/5
f 37/2/1 38/3/1 35/4/1 32/1/1
f 37/1/2 32/4/2 62/3/2 66/2/2
f 32/2/3 35/3/3 64/4/3 62/1/3
f 66/1/4 62/2/4 64/3/4 67/4/4
f 38/1/5 67/2/5 64/3/5 35/4/5
f 38/2/1 44/3/1 68/4/1 35/1/1
f 38/1/2 35/4/2 64/3/2 67/2/2
f 35/2/3 68/3/3 69/4/3 64/1/3
f 67/1/4 64/2/4 69/3/4 70/4/4
f 44/1/5 70/2/5 69/3/5 68/4/5
f 44/2/1 48/3/1 71/4/1 68/1/1
f 44/1/2 68/4/2 69/3/2 70/2/2
f 68/2/3 71/3/3 72/4/3 69/1/3
f 70/1/4 69/2/4 72/3/4 73/4/4
f 48/1/5 73/2/5 72/3/5 71/4/5
f 44/1/6 70/2/6 73/3/6 48/4/6
f 45/2/1 49/3/1 48/4/1 44/1/1
f 44/2/3 48/3/3 73/4/3 70/1/3
f 89/1/4 70/2/4 73/3/4 90/4/4
f 49/1/5 90/2/5 73/3/5 48/4/5
f 45/1/6 89/2/6 90/3/6 49/4/6
f 50/2/1 51/3/1 40/4/1 39/1/1
f 50/1/2 39/4/2 86/3/2 91/2/2
f 91/1/4 86/2/4 87/3/4 92/4/4
f 51/1/5 92/2/5 87/3/5 40/4/5
f 50/1/6 91/2/6 92/3/6 51/4/6
f 51/2/1 52/3/1 41/4/1 40/1/1
f 51/1/2 40/4/2 87/3/2 92/2/2
f 92/1/4 87/2/4 88/3/4 93/4/4
f 52/1/5 93/2/5 88/3/5 41/4/5
f 51/1/6 92/2/6 93/3/6 52/4/6
f 52/2/1 94/3/1 45/4/1 41/1/1
f 52/1/2 41/4/2 88/3/2 93/2/2
f 93/1/4 88/2/4 89/3/4 95/4/4
f 94/1/5 95/2/5 89/3/5 45/4/5
f 52/1/6 93/2/6 95/3/6 94/4/6
f 94/2/1 96/3/1 49/4/1 45/1/1
f 94/1/2 45/4/2 89/3/2 95/2/2
f 45/2/3 49/3/3 90/4/3 89/1/3
f 95/1/4 89/2/4 90/3/4 97/4/4
f 96/1/5 97/2/5 90/3/5 49/4/5
f 94/1/6 95/2/6 97/3/6 96/4/6
f 55/2/1 56/3/1 51/4/1 50/1/1
f 55/1/2 50/4/2 91/3/2 98/2/2
f 50/2/3 51/3/3 92/4/3 91/1/3
f 98/1/4 91/2/4 92/3/4 99/4/4
f 56/1/5 99/2/5 92/3/5 51/4/5
f 55/1/6 98/2/6 99/3/6 56/4/6
f 56/2/1 58/3/1 52/4/1 51/1/1
f 56/1/2 51/4/2 92/3/2 99/2/2
f 51/2/3 52/3/3 93/4/3 92/1/3
f 99/1/4 92/2/4 93/3/4 100/4/4
f 58/1/5 100/2/5 93/3/5 52/4/5
f 56/1/6 99/2/6 100/3/6 58/4/6
f 59/2/1 62/3/1 61/4/1 60/1/1
f 59/1/2 60/4/2 102/3/2 101/2/2
f 60/2/3 61/3/3 103/4/3 102/1/3
f 101/1/4 102/2/4 103/3/4 104/4/4
f 62/1/5 104/2/5 103/3/5 61/4/5
f 59/1/6 101/2/6 104/3/6 62/4/6
f 62/2/1 64/3/1 63/4/1 61/1/1
f 62/1/2 61/4/2 103/3/2 104/2/2
f 61/2/3 63/3/3 105/4/3 103/1/3
f 104/1/4 103/2/4 105/3/4 106/4/4
f 64/1/5 106/2/5 105/3/5 63/4/5
f 62/1/6 104/2/6 106/3/6 64/4/6
f 65/2/1 66/3/1 62/4/1 59/1/1
f 65/1/2 59/4/2 101/3/2 107/2/2
f 59/2/3 62/3/3 104/4/3 101/1/3
f 107/1/4 101/2/4 104/3/4 108/4/4
f 66/1/5 108/2/5 104/3/5 62/4/5
f 65/1/6 107/2/6 108/3/6 66/4/6
f 66/2/1 67/3/1 64/4/1 62/1/1
f 66/1/2 62/4/2 104/3/2 108/2/2
f 62/2/3 64/3/3 106/4/3 104/1/3
f 108/1/4 104/2/4 106/3/4 109/4/4
f 67/1/5 109/2/5 106/3/5 64/4/5
f 66/1/6 108/2/6 109/3/6 67/4/6
f 86/1/2 65/4/2 107/3/2 110/2/2
f 65/2/3 66/3/3 108/4/3 107/1/3
f 110/1/4 107/2/4 108/3/4 111/4/4
f 87/1/5 111/2/5 108/3/5 66/4/5
f 86/1/6 110/2/6 111/3/6 87/4/6
f 87/1/2 66/4/2 108/3/2 111/2/2
f 66/2/3 67/3/3 109/4/3 108/1/3
f 111/1/4 108/2/4 109/3/4 112/4/4
f 88/1/5 112/2/5 109/3/5 67/4/5
f 87/1/6 111/2/6 112/3/6 88/4/6
f 88/1/2 67/4/2 109/3/2 112/2/2
f 67/2/3 70/3/3 113/4/3 109/1/3
f 112/1/4 109/2/4 113/3/4 114/4/4
f 89/1/5 114/2/5 113/3/5 70/4/5
f 88/1/6 112/2/6 114/3/6 89/4/6
f 89/2/1 90/3/1 73/4/1 70/1/1
f 89/1/2 70/4/2 113/3/2 114/2/2
f 70/2/3 73/3/3 115/4/3 113/1/3
f 114/1/4 113/2/4 115/3/4 116/4/4
f 90/1/5 116/2/5 115/3/5 73/4/5
f 89/1/6 114/2/6 116/3/6 90/4/6
f 91/2/1 92/3/1 87/4/1 86/1/1
f 91/1/2 86/4/2 110/3/2 117/2/2
f 86/2/3 87/3/3 111/4/3 110/1/3
f 117/1/4 110/2/4 111/3/4 118/4/4
f 92/1/5 118/2/5 111/3/5 87/4/5
f 91/1/6 117/2/6 118/3/6 92/4/6
f 92/2/1 93/3/1 88/4/1 87/1/1
f 92/1/2 87/4/2 111/3/2 118/2/2
f 87/2/3 88/3/3 112/4/3 111/1/3
f 118/1/4 111/2/4 112/3/4 119/4/4
f 93/1/5 119/2/5 112/3/5 88/4/5
f 92/1/6 118/2/6 119/3/6 93/4/6
f 98/2/1 99/3/1 92/4/1 91/1/1
f 98/1/2 91/4/2 117/3/2 120/2/2
f 91/2/3 92/3/3 118/4/3 117/1/3
f 120/1/4 117/2/4 118/3/4 121/4/4
f 99/1/5 121/2/5 118/3/5 92/4/5
f 98/1/6 120/2/6 121/3/6 99/4/6
f 99/2/1 100/3/1 93/4/1 92/1/1
f 99/1/2 92/4/2 118/3/2 121/2/2
f 92/2/3 93/3/3 119/4/3 118/1/3
f 121/1/4 118/2/4 119/3/4 122/4/4
f 100/1/5 122/2/5 119/3/5 93/4/5
f 99/1/6 121/2/6 122/3/6 100/4/6
f 101/2/1 104/3/1 103/4/1 102/1/1
f 101/1/2 102/4/2 124/3/2 123/2/2
f 102/2/3 103/3/3 125/4/3 124/1/3
f 123/1/4 124/2/4 125/3/4 126/4/4
f 104/1/5 126/2/5 125/3/5 103/4/5
f 101/1/6 123/2/6 126/3/6 104/4/6
f 107/2/1 108/3/1 104/4/1 101/1/1
f 107/1/2 101/4/2 123/3/2 127/2/2
f 101/2/3 104/3/3 126/4/3 123/1/3
f 127/1/4 123/2/4 126/3/4 128/4/4
f 108/1/5 128/2/5 126/3/5 104/4/5
f 107/1/6 127/2/6 128/3/6 108/4/6
f 108/2/1 109/3/1 106/4/1 104/1/1
f 108/1/2 104/4/2 126/3/2 128/2/2
f 104/2/3 106/3/3 129/4/3 126/1/3
f 128/1/4 126/2/4 129/3/4 130/4/4
f 109/1/5 130/2/5 129/3/5 106/4/5
f 108/1/6 128/2/6 130/3/6 109/4/6
f 110/2/1 111/3/1 108/4/1 107/1/1
f 110/1/2 107/4/2 127/3/2 131/2/2
f 107/2/3 108/3/3 128/4/3 127/1/3
f 131/1/4 127/2/4 128/3/4 132/4/4
f 111/1/5 132/2/5 128/3/5 108/4/5
f 110/1/6 131/2/6 132/3/6 111/4/6
f 111/2/1 112/3/1 109/4/1 108/1/1
f 111/1/2 108/4/2 128/3/2 132/2/2
f 108/2/3 109/3/3 130/4/3 128/1/3
f 132/1/4 128/2/4 130/3/4 133/4/4
f 112/1/5 133/2/5 130/3/5 109/4/5
f 111/1/6 132/2/6 133/3/6 112/4/6
f 117/2/1 118/3/1 111/4/1 110/1/1
f 117/1/2 110/4/2 131/3/2 134/2/2
f 110/2/3 111/3/3 132/4/3 131/1/3
f 134/1/4 131/2/4 132/3/4 135/4/4
f 118/1/5 135/2/5 132/3/5 111/4/5
f 117/1/6 134/2/6 135/3/6 118/4/6
f 118/2/1 119/3/1 112/4/1 111/1/1
f 118/1/2 111/4/2 132/3/2 135/2/2
f 111/2/3 112/3/3 133/4/3 132/1/3
f 135/1/4 132/2/4 133/3/4 136/4/4
f 119/1/5 136/2/5 133/3/5 112/4/5
f 118/1/6 135/2/6 136/3/6 119/4/6
f 121/2/1 122/3/1 119/4/1 118/1/1
f 121/1/2 118/4/2 135/3/2 137/2/2
f 118/2/3 119/3/3 136/4/3 135/1/3
f 137/1/4 135/2/4 136/3/4 138/4/4
f 122/1/5 138/2/5 136/3/5 119/4/5
f 121/1/6 137/2/6 138/3/6 122/4/6
