# Wavefront OBJ file made by Mineways version 10.01, http://mineways.com
# World:  (2)
# Terrain file name: D:\Application\mineways\terrainExt.png
# Color scheme: Standard
# Fri Oct 14 16:45:28 2022

# Selection location min to max: 0, -60, 5 to 5, 319, 9
#   Non-empty selection location min to max: 0, -60, 5 to 4, -54, 9

# Set render type: Wavefront OBJ absolute indices
# Units for the model vertex data itself: meters

# 160 vertices, 429 faces (858 triangles), 75 blocks, 0 billboards/bits
# block dimensions: X=5 by Y=7 (height) by Z=5 blocks
# Elevation shading: no
# Lighting: no
# Transparent water: no
# Map grid: no
# File type: Export all textures to three large images
# Texture output RGB: YES
# Texture output A: YES
# Texture output RGBA: YES
# Make groups objects: no
# Export separate objects: YES
# Individual blocks: no
#   Material per family: YES
#   Split by block type: YES
# G3D full material: YES
# Make Z the up direction instead of Y: no
# Create composite overlay faces: no
# Center model: YES
# Export lesser blocks: YES
# Fatten lesser blocks: no
# Create block faces at the borders: YES
# Make tree leaves solid: no
# Use biomes: no
# Rotate model 0.000000 degrees
# Scale model by making each block 1000 mm high
# Data operation options:
#   Fill air bubbles: no; Seal off entrances: no; Fill in isolated tunnels in base of model: no
#   Connect parts sharing an edge: no; Connect corner tips: no; Weld all shared edges: no
#   Delete floating objects: trees and parts smaller than 16 blocks: no
#   Hollow out bottom of model, making the walls 1000 mm thick: no; Superhollow: no
# Melt snow blocks: no
#   Debug: show separate parts as colors: no
#   Debug: show weld blocks in bright colors: no

# Full world path: D:\Minecraft\PCL\.minecraft\versions\1.18.2\saves\ (2)
# Full terrainExt.png path: D:\Application\mineways\terrainExt.png
# Full current path: D:\Application\mineways

mtllib Minecraft.mtl

o _(2)__0_-60_5_to_5_319_9
vn -1 0 0
vn 0 -1 0
vn 0 0 -1
vn 1 0 0
vn 0 1 0
vn 0 0 1
vn -0.707107 0 -0.707107
vn -0.707107 0 0.707107
vn 0.707107 0 -0.707107
vn 0.707107 0 0.707107
vn -0.707107 -0.707107 0
vn 0 -0.707107 -0.707107
vn 0.707107 -0.707107 0
vn 0 -0.707107 0.707107
vn -0.707107 0.707107 0
vn 0 0.707107 -0.707107
vn 0.707107 0.707107 0
vn 0 0.707107 0.707107
vn -0.92388 0 -0.382683
vn -0.92388 0 0.382683
vn 0.92388 0 -0.382683
vn 0.92388 0 0.382683
vn -0.382683 0 -0.92388
vn -0.382683 0 0.92388
vn 0.382683 0 -0.92388
vn 0.382683 0 0.92388
vn -0.397273 0.9177 0
vn 0.397273 -0.9177 0
vn 0.397273 0.9177 0
vn -0.397273 -0.9177 0
vn 0 0.9177 -0.397273
vn 0 -0.9177 0.397273
vn 0 0.9177 0.397273
vn 0 -0.9177 -0.397273
vn -0.440932 0.897541 0
vn 0.440932 -0.897541 0
vn 0.440932 0.897541 0
vn -0.440932 -0.897541 0
vn 0 0.897541 -0.440932
vn 0 -0.897541 0.440932
vn 0 0.897541 0.440932
vn 0 -0.897541 -0.440932
# oak_leaves
vt 0.915039062 0.983398438
vt 0.930664062 0.983398438
vt 0.930664062 0.999023438
vt 0.915039062 0.999023438
# oak_log
vt 0.352539062 0.983398438
vt 0.368164062 0.983398438
vt 0.368164062 0.999023438
vt 0.352539062 0.999023438
# oak_log_top
vt 0.370117188 0.983398438
vt 0.385742188 0.983398438
vt 0.385742188 0.999023438
vt 0.370117188 0.999023438
v -3 3 -1
v -3 3 0
v -3 4 0
v -3 4 -1
v -2 3 0
v -2 3 -1
v -2 4 -1
v -2 4 0
v -3 5 0
v -3 5 -1
v -2 5 -1
v -2 5 0
v -3 6 0
v -3 6 -1
v -2 6 -1
v -2 6 0
v -3 3 1
v -3 4 1
v -2 3 1
v -2 4 1
v -3 5 1
v -2 5 1
v -3 6 1
v -2 6 1
v -3 3 2
v -3 4 2
v -2 3 2
v -2 4 2
v -3 5 2
v -2 5 2
v -3 6 2
v -2 6 2
v -2 3 -2
v -2 4 -2
v -1 3 -1
v -1 3 -2
v -1 4 -2
v -1 4 -1
v -2 5 -2
v -1 5 -2
v -1 5 -1
v -2 6 -2
v -1 6 -2
v -1 6 -1
v -1 3 0
v -1 4 0
v -1 5 0
v -1 6 0
v -2 2 0
v -2 2 1
v -1 2 1
v -1 2 0
v -1 3 1
v -1 4 1
v -1 5 1
v -1 6 1
v -2 7 1
v -2 7 0
v -1 7 0
v -1 7 1
v -1 3 2
v -1 4 2
v -1 5 2
v -1 6 2
v -2 3 3
v -2 4 3
v -1 3 3
v -1 4 3
v -2 5 3
v -1 5 3
v -2 6 3
v -1 6 3
v 0 3 -1
v 0 3 -2
v 0 4 -2
v 0 4 -1
v 0 5 -2
v 0 5 -1
v 0 6 -2
v 0 6 -1
v -1 2 -1
v 0 2 0
v 0 2 -1
v 0 3 0
v 0 4 0
v 0 5 0
v 0 6 0
v -1 7 -1
v 0 7 -1
v 0 7 0
v -1 0 0
v -1 0 1
v -1 1 1
v -1 1 0
v 0 0 1
v 0 0 0
v 0 1 0
v 0 1 1
v 0 2 1
v 0 3 1
v 0 4 1
v 0 5 1
v 0 6 1
v 0 7 1
v -1 2 2
v 0 2 2
v 0 3 2
v 0 4 2
v 0 5 2
v 0 6 2
v -1 7 2
v 0 7 2
v 0 3 3
v 0 4 3
v 0 5 3
v 0 6 3
v 1 3 -1
v 1 3 -2
v 1 4 -2
v 1 4 -1
v 1 5 -2
v 1 5 -1
v 1 6 -2
v 1 6 -1
v 1 3 0
v 1 4 0
v 1 5 0
v 1 6 0
v 1 2 1
v 1 2 0
v 1 3 1
v 1 4 1
v 1 5 1
v 1 6 1
v 1 7 0
v 1 7 1
v 1 3 2
v 1 4 2
v 1 5 2
v 1 6 2
v 1 3 3
v 1 4 3
v 1 5 3
v 1 6 3
v 2 3 0
v 2 3 -1
v 2 4 -1
v 2 4 0
v 2 5 -1
v 2 5 0
v 2 6 -1
v 2 6 0
v 2 3 1
v 2 4 1
v 2 5 1
v 2 6 1
v 2 3 2
v 2 4 2
v 2 5 2
v 2 6 2

g Oak_Log
usemtl Oak_Log
f 92/6/1 93/7/1 94/8/1 91/5/1
f 92/9/2 91/12/2 96/11/2 95/10/2
f 91/6/3 94/7/3 97/8/3 96/5/3
f 95/5/4 96/6/4 97/7/4 98/8/4
f 92/5/6 95/6/6 98/7/6 93/8/6
f 93/6/1 51/7/1 52/8/1 94/5/1
f 94/6/3 52/7/3 82/8/3 97/5/3
f 98/5/4 97/6/4 82/7/4 99/8/4
f 93/5/6 98/6/6 99/7/6 51/8/6
f 51/6/1 53/7/1 45/8/1 52/5/1
f 52/6/3 45/7/3 84/8/3 82/5/3
f 99/5/4 82/6/4 84/7/4 100/8/4
f 51/5/6 99/6/6 100/7/6 53/8/6
f 53/6/1 54/7/1 46/8/1 45/5/1
f 45/6/3 46/7/3 85/8/3 84/5/3
f 100/5/4 84/6/4 85/7/4 101/8/4
f 53/5/6 100/6/6 101/7/6 54/8/6
f 54/6/1 55/7/1 47/8/1 46/5/1
f 46/6/3 47/7/3 86/8/3 85/5/3
f 101/5/4 85/6/4 86/7/4 102/8/4
f 55/9/5 102/10/5 86/11/5 47/12/5
f 54/5/6 101/6/6 102/7/6 55/8/6

g Oak_Leaves
usemtl Oak_Leaves
f 2/2/1 3/3/1 4/4/1 1/1/1
f 2/1/2 1/4/2 6/3/2 5/2/2
f 1/2/3 4/3/3 7/4/3 6/1/3
f 5/1/4 6/2/4 7/3/4 8/4/4
f 3/1/5 8/2/5 7/3/5 4/4/5
f 2/1/6 5/2/6 8/3/6 3/4/6
f 3/2/1 9/3/1 10/4/1 4/1/1
f 3/1/2 4/4/2 7/3/2 8/2/2
f 4/2/3 10/3/3 11/4/3 7/1/3
f 8/1/4 7/2/4 11/3/4 12/4/4
f 9/1/5 12/2/5 11/3/5 10/4/5
f 3/1/6 8/2/6 12/3/6 9/4/6
f 9/2/1 13/3/1 14/4/1 10/1/1
f 9/1/2 10/4/2 11/3/2 12/2/2
f 10/2/3 14/3/3 15/4/3 11/1/3
f 12/1/4 11/2/4 15/3/4 16/4/4
f 13/1/5 16/2/5 15/3/5 14/4/5
f 9/1/6 12/2/6 16/3/6 13/4/6
f 17/2/1 18/3/1 3/4/1 2/1/1
f 17/1/2 2/4/2 5/3/2 19/2/2
f 2/2/3 3/3/3 8/4/3 5/1/3
f 19/1/4 5/2/4 8/3/4 20/4/4
f 18/1/5 20/2/5 8/3/5 3/4/5
f 17/1/6 19/2/6 20/3/6 18/4/6
f 18/2/1 21/3/1 9/4/1 3/1/1
f 18/1/2 3/4/2 8/3/2 20/2/2
f 3/2/3 9/3/3 12/4/3 8/1/3
f 20/1/4 8/2/4 12/3/4 22/4/4
f 21/1/5 22/2/5 12/3/5 9/4/5
f 18/1/6 20/2/6 22/3/6 21/4/6
f 21/2/1 23/3/1 13/4/1 9/1/1
f 21/1/2 9/4/2 12/3/2 22/2/2
f 9/2/3 13/3/3 16/4/3 12/1/3
f 22/1/4 12/2/4 16/3/4 24/4/4
f 23/1/5 24/2/5 16/3/5 13/4/5
f 21/1/6 22/2/6 24/3/6 23/4/6
f 25/2/1 26/3/1 18/4/1 17/1/1
f 25/1/2 17/4/2 19/3/2 27/2/2
f 17/2/3 18/3/3 20/4/3 19/1/3
f 27/1/4 19/2/4 20/3/4 28/4/4
f 26/1/5 28/2/5 20/3/5 18/4/5
f 25/1/6 27/2/6 28/3/6 26/4/6
f 26/2/1 29/3/1 21/4/1 18/1/1
f 26/1/2 18/4/2 20/3/2 28/2/2
f 18/2/3 21/3/3 22/4/3 20/1/3
f 28/1/4 20/2/4 22/3/4 30/4/4
f 29/1/5 30/2/5 22/3/5 21/4/5
f 26/1/6 28/2/6 30/3/6 29/4/6
f 29/2/1 31/3/1 23/4/1 21/1/1
f 29/1/2 21/4/2 22/3/2 30/2/2
f 21/2/3 23/3/3 24/4/3 22/1/3
f 30/1/4 22/2/4 24/3/4 32/4/4
f 31/1/5 32/2/5 24/3/5 23/4/5
f 29/1/6 30/2/6 32/3/6 31/4/6
f 6/2/1 7/3/1 34/4/1 33/1/1
f 6/1/2 33/4/2 36/3/2 35/2/2
f 33/2/3 34/3/3 37/4/3 36/1/3
f 35/1/4 36/2/4 37/3/4 38/4/4
f 7/1/5 38/2/5 37/3/5 34/4/5
f 6/1/6 35/2/6 38/3/6 7/4/6
f 7/2/1 11/3/1 39/4/1 34/1/1
f 7/1/2 34/4/2 37/3/2 38/2/2
f 34/2/3 39/3/3 40/4/3 37/1/3
f 38/1/4 37/2/4 40/3/4 41/4/4
f 11/1/5 41/2/5 40/3/5 39/4/5
f 7/1/6 38/2/6 41/3/6 11/4/6
f 11/2/1 15/3/1 42/4/1 39/1/1
f 11/1/2 39/4/2 40/3/2 41/2/2
f 39/2/3 42/3/3 43/4/3 40/1/3
f 41/1/4 40/2/4 43/3/4 44/4/4
f 15/1/5 44/2/5 43/3/5 42/4/5
f 11/1/6 41/2/6 44/3/6 15/4/6
f 5/2/1 8/3/1 7/4/1 6/1/1
f 5/1/2 6/4/2 35/3/2 45/2/2
f 6/2/3 7/3/3 38/4/3 35/1/3
f 45/1/4 35/2/4 38/3/4 46/4/4
f 8/1/5 46/2/5 38/3/5 7/4/5
f 5/1/6 45/2/6 46/3/6 8/4/6
f 8/2/1 12/3/1 11/4/1 7/1/1
f 8/1/2 7/4/2 38/3/2 46/2/2
f 7/2/3 11/3/3 41/4/3 38/1/3
f 46/1/4 38/2/4 41/3/4 47/4/4
f 12/1/5 47/2/5 41/3/5 11/4/5
f 8/1/6 46/2/6 47/3/6 12/4/6
f 12/2/1 16/3/1 15/4/1 11/1/1
f 12/1/2 11/4/2 41/3/2 47/2/2
f 11/2/3 15/3/3 44/4/3 41/1/3
f 47/1/4 41/2/4 44/3/4 48/4/4
f 16/1/5 48/2/5 44/3/5 15/4/5
f 12/1/6 47/2/6 48/3/6 16/4/6
f 50/2/1 19/3/1 5/4/1 49/1/1
f 50/1/2 49/4/2 52/3/2 51/2/2
f 49/2/3 5/3/3 45/4/3 52/1/3
f 19/1/5 53/2/5 45/3/5 5/4/5
f 50/1/6 51/2/6 53/3/6 19/4/6
f 19/2/1 20/3/1 8/4/1 5/1/1
f 19/1/2 5/4/2 45/3/2 53/2/2
f 5/2/3 8/3/3 46/4/3 45/1/3
f 20/1/5 54/2/5 46/3/5 8/4/5
f 19/1/6 53/2/6 54/3/6 20/4/6
f 20/2/1 22/3/1 12/4/1 8/1/1
f 20/1/2 8/4/2 46/3/2 54/2/2
f 8/2/3 12/3/3 47/4/3 46/1/3
f 22/1/5 55/2/5 47/3/5 12/4/5
f 20/1/6 54/2/6 55/3/6 22/4/6
f 22/2/1 24/3/1 16/4/1 12/1/1
f 22/1/2 12/4/2 47/3/2 55/2/2
f 12/2/3 16/3/3 48/4/3 47/1/3
f 55/1/4 47/2/4 48/3/4 56/4/4
f 24/1/5 56/2/5 48/3/5 16/4/5
f 22/1/6 55/2/6 56/3/6 24/4/6
f 24/2/1 57/3/1 58/4/1 16/1/1
f 24/1/2 16/4/2 48/3/2 56/2/2
f 16/2/3 58/3/3 59/4/3 48/1/3
f 56/1/4 48/2/4 59/3/4 60/4/4
f 57/1/5 60/2/5 59/3/5 58/4/5
f 24/1/6 56/2/6 60/3/6 57/4/6
f 27/2/1 28/3/1 20/4/1 19/1/1
f 27/1/2 19/4/2 53/3/2 61/2/2
f 19/2/3 20/3/3 54/4/3 53/1/3
f 61/1/4 53/2/4 54/3/4 62/4/4
f 28/1/5 62/2/5 54/3/5 20/4/5
f 27/1/6 61/2/6 62/3/6 28/4/6
f 28/2/1 30/3/1 22/4/1 20/1/1
f 28/1/2 20/4/2 54/3/2 62/2/2
f 20/2/3 22/3/3 55/4/3 54/1/3
f 62/1/4 54/2/4 55/3/4 63/4/4
f 30/1/5 63/2/5 55/3/5 22/4/5
f 28/1/6 62/2/6 63/3/6 30/4/6
f 30/2/1 32/3/1 24/4/1 22/1/1
f 30/1/2 22/4/2 55/3/2 63/2/2
f 22/2/3 24/3/3 56/4/3 55/1/3
f 63/1/4 55/2/4 56/3/4 64/4/4
f 32/1/5 64/2/5 56/3/5 24/4/5
f 30/1/6 63/2/6 64/3/6 32/4/6
f 65/2/1 66/3/1 28/4/1 27/1/1
f 65/1/2 27/4/2 61/3/2 67/2/2
f 27/2/3 28/3/3 62/4/3 61/1/3
f 67/1/4 61/2/4 62/3/4 68/4/4
f 66/1/5 68/2/5 62/3/5 28/4/5
f 65/1/6 67/2/6 68/3/6 66/4/6
f 66/2/1 69/3/1 30/4/1 28/1/1
f 66/1/2 28/4/2 62/3/2 68/2/2
f 28/2/3 30/3/3 63/4/3 62/1/3
f 68/1/4 62/2/4 63/3/4 70/4/4
f 69/1/5 70/2/5 63/3/5 30/4/5
f 66/1/6 68/2/6 70/3/6 69/4/6
f 69/2/1 71/3/1 32/4/1 30/1/1
f 69/1/2 30/4/2 63/3/2 70/2/2
f 30/2/3 32/3/3 64/4/3 63/1/3
f 70/1/4 63/2/4 64/3/4 72/4/4
f 71/1/5 72/2/5 64/3/5 32/4/5
f 69/1/6 70/2/6 72/3/6 71/4/6
f 35/2/1 38/3/1 37/4/1 36/1/1
f 35/1/2 36/4/2 74/3/2 73/2/2
f 36/2/3 37/3/3 75/4/3 74/1/3
f 73/1/4 74/2/4 75/3/4 76/4/4
f 38/1/5 76/2/5 75/3/5 37/4/5
f 35/1/6 73/2/6 76/3/6 38/4/6
f 38/2/1 41/3/1 40/4/1 37/1/1
f 38/1/2 37/4/2 75/3/2 76/2/2
f 37/2/3 40/3/3 77/4/3 75/1/3
f 76/1/4 75/2/4 77/3/4 78/4/4
f 41/1/5 78/2/5 77/3/5 40/4/5
f 38/1/6 76/2/6 78/3/6 41/4/6
f 41/2/1 44/3/1 43/4/1 40/1/1
f 41/1/2 40/4/2 77/3/2 78/2/2
f 40/2/3 43/3/3 79/4/3 77/1/3
f 78/1/4 77/2/4 79/3/4 80/4/4
f 44/1/5 80/2/5 79/3/5 43/4/5
f 41/1/6 78/2/6 80/3/6 44/4/6
f 52/2/1 45/3/1 35/4/1 81/1/1
f 52/1/2 81/4/2 83/3/2 82/2/2
f 81/2/3 35/3/3 73/4/3 83/1/3
f 82/1/4 83/2/4 73/3/4 84/4/4
f 45/1/5 84/2/5 73/3/5 35/4/5
f 45/2/1 46/3/1 38/4/1 35/1/1
f 45/1/2 35/4/2 73/3/2 84/2/2
f 35/2/3 38/3/3 76/4/3 73/1/3
f 84/1/4 73/2/4 76/3/4 85/4/4
f 46/1/5 85/2/5 76/3/5 38/4/5
f 46/2/1 47/3/1 41/4/1 38/1/1
f 46/1/2 38/4/2 76/3/2 85/2/2
f 38/2/3 41/3/3 78/4/3 76/1/3
f 85/1/4 76/2/4 78/3/4 86/4/4
f 47/1/5 86/2/5 78/3/5 41/4/5
f 47/2/1 48/3/1 44/4/1 41/1/1
f 47/1/2 41/4/2 78/3/2 86/2/2
f 41/2/3 44/3/3 80/4/3 78/1/3
f 86/1/4 78/2/4 80/3/4 87/4/4
f 48/1/5 87/2/5 80/3/5 44/4/5
f 47/1/6 86/2/6 87/3/6 48/4/6
f 48/2/1 59/3/1 88/4/1 44/1/1
f 48/1/2 44/4/2 80/3/2 87/2/2
f 44/2/3 88/3/3 89/4/3 80/1/3
f 87/1/4 80/2/4 89/3/4 90/4/4
f 59/1/5 90/2/5 89/3/5 88/4/5
f 48/1/6 87/2/6 90/3/6 59/4/6
f 55/2/1 56/3/1 48/4/1 47/1/1
f 47/2/3 48/3/3 87/4/3 86/1/3
f 102/1/4 86/2/4 87/3/4 103/4/4
f 56/1/5 103/2/5 87/3/5 48/4/5
f 55/1/6 102/2/6 103/3/6 56/4/6
f 56/2/1 60/3/1 59/4/1 48/1/1
f 56/1/2 48/4/2 87/3/2 103/2/2
f 48/2/3 59/3/3 90/4/3 87/1/3
f 103/1/4 87/2/4 90/3/4 104/4/4
f 60/1/5 104/2/5 90/3/5 59/4/5
f 56/1/6 103/2/6 104/3/6 60/4/6
f 105/2/1 61/3/1 53/4/1 51/1/1
f 105/1/2 51/4/2 99/3/2 106/2/2
f 106/1/4 99/2/4 100/3/4 107/4/4
f 61/1/5 107/2/5 100/3/5 53/4/5
f 105/1/6 106/2/6 107/3/6 61/4/6
f 61/2/1 62/3/1 54/4/1 53/1/1
f 61/1/2 53/4/2 100/3/2 107/2/2
f 107/1/4 100/2/4 101/3/4 108/4/4
f 62/1/5 108/2/5 101/3/5 54/4/5
f 61/1/6 107/2/6 108/3/6 62/4/6
f 62/2/1 63/3/1 55/4/1 54/1/1
f 62/1/2 54/4/2 101/3/2 108/2/2
f 108/1/4 101/2/4 102/3/4 109/4/4
f 63/1/5 109/2/5 102/3/5 55/4/5
f 62/1/6 108/2/6 109/3/6 63/4/6
f 63/2/1 64/3/1 56/4/1 55/1/1
f 63/1/2 55/4/2 102/3/2 109/2/2
f 55/2/3 56/3/3 103/4/3 102/1/3
f 109/1/4 102/2/4 103/3/4 110/4/4
f 64/1/5 110/2/5 103/3/5 56/4/5
f 63/1/6 109/2/6 110/3/6 64/4/6
f 64/2/1 111/3/1 60/4/1 56/1/1
f 64/1/2 56/4/2 103/3/2 110/2/2
f 56/2/3 60/3/3 104/4/3 103/1/3
f 110/1/4 103/2/4 104/3/4 112/4/4
f 111/1/5 112/2/5 104/3/5 60/4/5
f 64/1/6 110/2/6 112/3/6 111/4/6
f 67/2/1 68/3/1 62/4/1 61/1/1
f 67/1/2 61/4/2 107/3/2 113/2/2
f 61/2/3 62/3/3 108/4/3 107/1/3
f 113/1/4 107/2/4 108/3/4 114/4/4
f 68/1/5 114/2/5 108/3/5 62/4/5
f 67/1/6 113/2/6 114/3/6 68/4/6
f 68/2/1 70/3/1 63/4/1 62/1/1
f 68/1/2 62/4/2 108/3/2 114/2/2
f 62/2/3 63/3/3 109/4/3 108/1/3
f 114/1/4 108/2/4 109/3/4 115/4/4
f 70/1/5 115/2/5 109/3/5 63/4/5
f 68/1/6 114/2/6 115/3/6 70/4/6
f 70/2/1 72/3/1 64/4/1 63/1/1
f 70/1/2 63/4/2 109/3/2 115/2/2
f 63/2/3 64/3/3 110/4/3 109/1/3
f 115/1/4 109/2/4 110/3/4 116/4/4
f 72/1/5 116/2/5 110/3/5 64/4/5
f 70/1/6 115/2/6 116/3/6 72/4/6
f 73/2/1 76/3/1 75/4/1 74/1/1
f 73/1/2 74/4/2 118/3/2 117/2/2
f 74/2/3 75/3/3 119/4/3 118/1/3
f 117/1/4 118/2/4 119/3/4 120/4/4
f 76/1/5 120/2/5 119/3/5 75/4/5
f 73/1/6 117/2/6 120/3/6 76/4/6
f 76/2/1 78/3/1 77/4/1 75/1/1
f 76/1/2 75/4/2 119/3/2 120/2/2
f 75/2/3 77/3/3 121/4/3 119/1/3
f 120/1/4 119/2/4 121/3/4 122/4/4
f 78/1/5 122/2/5 121/3/5 77/4/5
f 76/1/6 120/2/6 122/3/6 78/4/6
f 78/2/1 80/3/1 79/4/1 77/1/1
f 78/1/2 77/4/2 121/3/2 122/2/2
f 77/2/3 79/3/3 123/4/3 121/1/3
f 122/1/4 121/2/4 123/3/4 124/4/4
f 80/1/5 124/2/5 123/3/5 79/4/5
f 78/1/6 122/2/6 124/3/6 80/4/6
f 84/2/1 85/3/1 76/4/1 73/1/1
f 84/1/2 73/4/2 117/3/2 125/2/2
f 73/2/3 76/3/3 120/4/3 117/1/3
f 125/1/4 117/2/4 120/3/4 126/4/4
f 85/1/5 126/2/5 120/3/5 76/4/5
f 84/1/6 125/2/6 126/3/6 85/4/6
f 85/2/1 86/3/1 78/4/1 76/1/1
f 85/1/2 76/4/2 120/3/2 126/2/2
f 76/2/3 78/3/3 122/4/3 120/1/3
f 126/1/4 120/2/4 122/3/4 127/4/4
f 86/1/5 127/2/5 122/3/5 78/4/5
f 85/1/6 126/2/6 127/3/6 86/4/6
f 86/2/1 87/3/1 80/4/1 78/1/1
f 86/1/2 78/4/2 122/3/2 127/2/2
f 78/2/3 80/3/3 124/4/3 122/1/3
f 127/1/4 122/2/4 124/3/4 128/4/4
f 87/1/5 128/2/5 124/3/5 80/4/5
f 86/1/6 127/2/6 128/3/6 87/4/6
f 99/1/2 82/4/2 130/3/2 129/2/2
f 82/2/3 84/3/3 125/4/3 130/1/3
f 129/1/4 130/2/4 125/3/4 131/4/4
f 100/1/5 131/2/5 125/3/5 84/4/5
f 99/1/6 129/2/6 131/3/6 100/4/6
f 100/1/2 84/4/2 125/3/2 131/2/2
f 84/2/3 85/3/3 126/4/3 125/1/3
f 131/1/4 125/2/4 126/3/4 132/4/4
f 101/1/5 132/2/5 126/3/5 85/4/5
f 100/1/6 131/2/6 132/3/6 101/4/6
f 101/1/2 85/4/2 126/3/2 132/2/2
f 85/2/3 86/3/3 127/4/3 126/1/3
f 132/1/4 126/2/4 127/3/4 133/4/4
f 102/1/5 133/2/5 127/3/5 86/4/5
f 101/1/6 132/2/6 133/3/6 102/4/6
f 102/2/1 103/3/1 87/4/1 86/1/1
f 102/1/2 86/4/2 127/3/2 133/2/2
f 86/2/3 87/3/3 128/4/3 127/1/3
f 133/1/4 127/2/4 128/3/4 134/4/4
f 103/1/5 134/2/5 128/3/5 87/4/5
f 102/1/6 133/2/6 134/3/6 103/4/6
f 103/2/1 104/3/1 90/4/1 87/1/1
f 103/1/2 87/4/2 128/3/2 134/2/2
f 87/2/3 90/3/3 135/4/3 128/1/3
f 134/1/4 128/2/4 135/3/4 136/4/4
f 104/1/5 136/2/5 135/3/5 90/4/5
f 103/1/6 134/2/6 136/3/6 104/4/6
f 107/2/1 108/3/1 101/4/1 100/1/1
f 107/1/2 100/4/2 131/3/2 137/2/2
f 100/2/3 101/3/3 132/4/3 131/1/3
f 137/1/4 131/2/4 132/3/4 138/4/4
f 108/1/5 138/2/5 132/3/5 101/4/5
f 107/1/6 137/2/6 138/3/6 108/4/6
f 108/2/1 109/3/1 102/4/1 101/1/1
f 108/1/2 101/4/2 132/3/2 138/2/2
f 101/2/3 102/3/3 133/4/3 132/1/3
f 138/1/4 132/2/4 133/3/4 139/4/4
f 109/1/5 139/2/5 133/3/5 102/4/5
f 108/1/6 138/2/6 139/3/6 109/4/6
f 109/2/1 110/3/1 103/4/1 102/1/1
f 109/1/2 102/4/2 133/3/2 139/2/2
f 102/2/3 103/3/3 134/4/3 133/1/3
f 139/1/4 133/2/4 134/3/4 140/4/4
f 110/1/5 140/2/5 134/3/5 103/4/5
f 109/1/6 139/2/6 140/3/6 110/4/6
f 113/2/1 114/3/1 108/4/1 107/1/1
f 113/1/2 107/4/2 137/3/2 141/2/2
f 107/2/3 108/3/3 138/4/3 137/1/3
f 141/1/4 137/2/4 138/3/4 142/4/4
f 114/1/5 142/2/5 138/3/5 108/4/5
f 113/1/6 141/2/6 142/3/6 114/4/6
f 114/2/1 115/3/1 109/4/1 108/1/1
f 114/1/2 108/4/2 138/3/2 142/2/2
f 108/2/3 109/3/3 139/4/3 138/1/3
f 142/1/4 138/2/4 139/3/4 143/4/4
f 115/1/5 143/2/5 139/3/5 109/4/5
f 114/1/6 142/2/6 143/3/6 115/4/6
f 115/2/1 116/3/1 110/4/1 109/1/1
f 115/1/2 109/4/2 139/3/2 143/2/2
f 109/2/3 110/3/3 140/4/3 139/1/3
f 143/1/4 139/2/4 140/3/4 144/4/4
f 116/1/5 144/2/5 140/3/5 110/4/5
f 115/1/6 143/2/6 144/3/6 116/4/6
f 125/2/1 126/3/1 120/4/1 117/1/1
f 125/1/2 117/4/2 146/3/2 145/2/2
f 117/2/3 120/3/3 147/4/3 146/1/3
f 145/1/4 146/2/4 147/3/4 148/4/4
f 126/1/5 148/2/5 147/3/5 120/4/5
f 125/1/6 145/2/6 148/3/6 126/4/6
f 126/2/1 127/3/1 122/4/1 120/1/1
f 126/1/2 120/4/2 147/3/2 148/2/2
f 120/2/3 122/3/3 149/4/3 147/1/3
f 148/1/4 147/2/4 149/3/4 150/4/4
f 127/1/5 150/2/5 149/3/5 122/4/5
f 126/1/6 148/2/6 150/3/6 127/4/6
f 127/2/1 128/3/1 124/4/1 122/1/1
f 127/1/2 122/4/2 149/3/2 150/2/2
f 122/2/3 124/3/3 151/4/3 149/1/3
f 150/1/4 149/2/4 151/3/4 152/4/4
f 128/1/5 152/2/5 151/3/5 124/4/5
f 127/1/6 150/2/6 152/3/6 128/4/6
f 131/2/1 132/3/1 126/4/1 125/1/1
f 131/1/2 125/4/2 145/3/2 153/2/2
f 125/2/3 126/3/3 148/4/3 145/1/3
f 153/1/4 145/2/4 148/3/4 154/4/4
f 132/1/5 154/2/5 148/3/5 126/4/5
f 131/1/6 153/2/6 154/3/6 132/4/6
f 132/2/1 133/3/1 127/4/1 126/1/1
f 132/1/2 126/4/2 148/3/2 154/2/2
f 126/2/3 127/3/3 150/4/3 148/1/3
f 154/1/4 148/2/4 150/3/4 155/4/4
f 133/1/5 155/2/5 150/3/5 127/4/5
f 132/1/6 154/2/6 155/3/6 133/4/6
f 133/2/1 134/3/1 128/4/1 127/1/1
f 133/1/2 127/4/2 150/3/2 155/2/2
f 127/2/3 128/3/3 152/4/3 150/1/3
f 155/1/4 150/2/4 152/3/4 156/4/4
f 134/1/5 156/2/5 152/3/5 128/4/5
f 133/1/6 155/2/6 156/3/6 134/4/6
f 137/2/1 138/3/1 132/4/1 131/1/1
f 137/1/2 131/4/2 153/3/2 157/2/2
f 131/2/3 132/3/3 154/4/3 153/1/3
f 157/1/4 153/2/4 154/3/4 158/4/4
f 138/1/5 158/2/5 154/3/5 132/4/5
f 137/1/6 157/2/6 158/3/6 138/4/6
f 138/2/1 139/3/1 133/4/1 132/1/1
f 138/1/2 132/4/2 154/3/2 158/2/2
f 132/2/3 133/3/3 155/4/3 154/1/3
f 158/1/4 154/2/4 155/3/4 159/4/4
f 139/1/5 159/2/5 155/3/5 133/4/5
f 138/1/6 158/2/6 159/3/6 139/4/6
f 139/2/1 140/3/1 134/4/1 133/1/1
f 139/1/2 133/4/2 155/3/2 159/2/2
f 133/2/3 134/3/3 156/4/3 155/1/3
f 159/1/4 155/2/4 156/3/4 160/4/4
f 140/1/5 160/2/5 156/3/5 134/4/5
f 139/1/6 159/2/6 160/3/6 140/4/6
