# Wavefront OBJ file made by Mineways version 10.01, http://mineways.com
# World:  (2)
# Terrain file name: D:\Application\mineways\terrainExt.png
# Color scheme: Standard
# Sun Oct 16 20:32:17 2022

# Selection location min to max: 27, -60, -140 to 32, 319, -136
#   Non-empty selection location min to max: 27, -60, -140 to 31, -55, -136

# Set render type: Wavefront OBJ absolute indices
# Units for the model vertex data itself: meters

# 116 vertices, 207 faces (414 triangles), 38 blocks, 0 billboards/bits
# block dimensions: X=5 by Y=6 (height) by Z=5 blocks
# Elevation shading: no
# Lighting: no
# Transparent water: no
# Map grid: no
# File type: Export all textures to three large images
# Texture output RGB: YES
# Texture output A: YES
# Texture output RGBA: YES
# Make groups objects: no
# Export separate objects: no
# Individual blocks: no
#   Split by block type: no
# G3D full material: YES
# Make Z the up direction instead of Y: no
# Create composite overlay faces: no
# Center model: YES
# Export lesser blocks: YES
# Fatten lesser blocks: no
# Create block faces at the borders: YES
# Make tree leaves solid: no
# Use biomes: no
# Rotate model 0.000000 degrees
# Scale model by making each block 1000 mm high
# Data operation options:
#   Fill air bubbles: no; Seal off entrances: no; Fill in isolated tunnels in base of model: no
#   Connect parts sharing an edge: no; Connect corner tips: no; Weld all shared edges: no
#   Delete floating objects: trees and parts smaller than 16 blocks: no
#   Hollow out bottom of model, making the walls 1000 mm thick: no; Superhollow: no
# Melt snow blocks: no
#   Debug: show separate parts as colors: no
#   Debug: show weld blocks in bright colors: no

# Full world path: D:\Minecraft\PCL\.minecraft\versions\1.18.2\saves\ (2)
# Full terrainExt.png path: D:\Application\mineways\terrainExt.png
# Full current path: D:\Application\mineways

mtllib Minecraft.mtl

o _(2)__27_-60_-140_to_32_319_-136
vn -1 0 0
vn 0 -1 0
vn 0 0 -1
vn 1 0 0
vn 0 1 0
vn 0 0 1
vn -0.707107 0 -0.707107
vn -0.707107 0 0.707107
vn 0.707107 0 -0.707107
vn 0.707107 0 0.707107
vn -0.707107 -0.707107 0
vn 0 -0.707107 -0.707107
vn 0.707107 -0.707107 0
vn 0 -0.707107 0.707107
vn -0.707107 0.707107 0
vn 0 0.707107 -0.707107
vn 0.707107 0.707107 0
vn 0 0.707107 0.707107
vn -0.92388 0 -0.382683
vn -0.92388 0 0.382683
vn 0.92388 0 -0.382683
vn 0.92388 0 0.382683
vn -0.382683 0 -0.92388
vn -0.382683 0 0.92388
vn 0.382683 0 -0.92388
vn 0.382683 0 0.92388
vn -0.397273 0.9177 0
vn 0.397273 -0.9177 0
vn 0.397273 0.9177 0
vn -0.397273 -0.9177 0
vn 0 0.9177 -0.397273
vn 0 -0.9177 0.397273
vn 0 0.9177 0.397273
vn 0 -0.9177 -0.397273
vn -0.440932 0.897541 0
vn 0.440932 -0.897541 0
vn 0.440932 0.897541 0
vn -0.440932 -0.897541 0
vn 0 0.897541 -0.440932
vn 0 -0.897541 0.440932
vn 0 0.897541 0.440932
vn 0 -0.897541 -0.440932
# spruce_leaves
vt 0.352539062 0.948242188
vt 0.368164062 0.948242188
vt 0.368164062 0.963867188
vt 0.352539062 0.963867188
# spruce_log
vt 0.071289062 0.948242188
vt 0.086914062 0.948242188
vt 0.086914062 0.963867188
vt 0.071289062 0.963867188
# spruce_log_top
vt 0.352539062 0.930664062
vt 0.368164062 0.930664062
vt 0.368164062 0.946289062
vt 0.352539062 0.946289062
v -3 2 -1
v -3 2 0
v -3 3 0
v -3 3 -1
v -2 2 0
v -2 2 -1
v -2 3 -1
v -2 3 0
v -3 2 1
v -3 3 1
v -2 2 1
v -2 3 1
v -3 2 2
v -3 3 2
v -2 2 2
v -2 3 2
v -2 2 -2
v -2 3 -2
v -1 2 -1
v -1 2 -2
v -1 3 -2
v -1 3 -1
v -1 2 0
v -1 3 0
v -2 1 0
v -2 1 1
v -1 1 1
v -1 1 0
v -1 2 1
v -1 3 1
v -2 4 1
v -2 4 0
v -1 4 0
v -1 4 1
v -2 5 0
v -2 5 1
v -2 6 1
v -2 6 0
v -1 5 1
v -1 5 0
v -1 6 0
v -1 6 1
v -1 2 2
v -1 3 2
v -2 2 3
v -2 3 3
v -1 2 3
v -1 3 3
v 0 2 -1
v 0 2 -2
v 0 3 -2
v 0 3 -1
v -1 1 -1
v 0 1 0
v 0 1 -1
v 0 2 0
v 0 3 0
v -1 4 -1
v 0 4 -1
v 0 4 0
v -1 5 -1
v -1 6 -1
v 0 5 0
v 0 5 -1
v 0 6 -1
v 0 6 0
v -1 0 0
v -1 0 1
v 0 0 1
v 0 0 0
v 0 1 1
v 0 2 1
v 0 3 1
v 0 4 1
v 0 5 1
v 0 6 1
v -1 1 2
v 0 1 2
v 0 2 2
v 0 3 2
v -1 4 2
v 0 4 2
v -1 5 2
v -1 6 2
v 0 5 2
v 0 6 2
v 0 2 3
v 0 3 3
v 1 2 -1
v 1 2 -2
v 1 3 -2
v 1 3 -1
v 1 2 0
v 1 3 0
v 1 1 1
v 1 1 0
v 1 2 1
v 1 3 1
v 1 4 0
v 1 4 1
v 1 5 1
v 1 5 0
v 1 6 0
v 1 6 1
v 1 2 2
v 1 3 2
v 1 2 3
v 1 3 3
v 2 2 0
v 2 2 -1
v 2 3 -1
v 2 3 0
v 2 2 1
v 2 3 1
v 2 2 2
v 2 3 2

usemtl MC_material
f 68/6/1 27/7/1 28/8/1 67/5/1
f 68/9/2 67/12/2 70/11/2 69/10/2
f 67/6/3 28/7/3 54/8/3 70/5/3
f 69/5/4 70/6/4 54/7/4 71/8/4
f 68/5/6 69/6/6 71/7/6 27/8/6
f 27/6/1 29/7/1 23/8/1 28/5/1
f 28/6/3 23/7/3 56/8/3 54/5/3
f 71/5/4 54/6/4 56/7/4 72/8/4
f 27/5/6 71/6/6 72/7/6 29/8/6
f 29/6/1 30/7/1 24/8/1 23/5/1
f 23/6/3 24/7/3 57/8/3 56/5/3
f 72/5/4 56/6/4 57/7/4 73/8/4
f 29/5/6 72/6/6 73/7/6 30/8/6
f 30/6/1 34/7/1 33/8/1 24/5/1
f 24/6/3 33/7/3 60/8/3 57/5/3
f 73/5/4 57/6/4 60/7/4 74/8/4
f 30/5/6 73/6/6 74/7/6 34/8/6
f 34/6/1 39/7/1 40/8/1 33/5/1
f 33/6/3 40/7/3 63/8/3 60/5/3
f 74/5/4 60/6/4 63/7/4 75/8/4
f 39/9/5 75/10/5 63/11/5 40/12/5
f 34/5/6 74/6/6 75/7/6 39/8/6
f 2/2/1 3/3/1 4/4/1 1/1/1
f 2/1/2 1/4/2 6/3/2 5/2/2
f 1/2/3 4/3/3 7/4/3 6/1/3
f 5/1/4 6/2/4 7/3/4 8/4/4
f 3/1/5 8/2/5 7/3/5 4/4/5
f 2/1/6 5/2/6 8/3/6 3/4/6
f 9/2/1 10/3/1 3/4/1 2/1/1
f 9/1/2 2/4/2 5/3/2 11/2/2
f 2/2/3 3/3/3 8/4/3 5/1/3
f 11/1/4 5/2/4 8/3/4 12/4/4
f 10/1/5 12/2/5 8/3/5 3/4/5
f 9/1/6 11/2/6 12/3/6 10/4/6
f 13/2/1 14/3/1 10/4/1 9/1/1
f 13/1/2 9/4/2 11/3/2 15/2/2
f 9/2/3 10/3/3 12/4/3 11/1/3
f 15/1/4 11/2/4 12/3/4 16/4/4
f 14/1/5 16/2/5 12/3/5 10/4/5
f 13/1/6 15/2/6 16/3/6 14/4/6
f 6/2/1 7/3/1 18/4/1 17/1/1
f 6/1/2 17/4/2 20/3/2 19/2/2
f 17/2/3 18/3/3 21/4/3 20/1/3
f 19/1/4 20/2/4 21/3/4 22/4/4
f 7/1/5 22/2/5 21/3/5 18/4/5
f 6/1/6 19/2/6 22/3/6 7/4/6
f 5/2/1 8/3/1 7/4/1 6/1/1
f 5/1/2 6/4/2 19/3/2 23/2/2
f 6/2/3 7/3/3 22/4/3 19/1/3
f 23/1/4 19/2/4 22/3/4 24/4/4
f 8/1/5 24/2/5 22/3/5 7/4/5
f 5/1/6 23/2/6 24/3/6 8/4/6
f 26/2/1 11/3/1 5/4/1 25/1/1
f 26/1/2 25/4/2 28/3/2 27/2/2
f 25/2/3 5/3/3 23/4/3 28/1/3
f 11/1/5 29/2/5 23/3/5 5/4/5
f 26/1/6 27/2/6 29/3/6 11/4/6
f 11/2/1 12/3/1 8/4/1 5/1/1
f 11/1/2 5/4/2 23/3/2 29/2/2
f 5/2/3 8/3/3 24/4/3 23/1/3
f 12/1/5 30/2/5 24/3/5 8/4/5
f 11/1/6 29/2/6 30/3/6 12/4/6
f 12/2/1 31/3/1 32/4/1 8/1/1
f 12/1/2 8/4/2 24/3/2 30/2/2
f 8/2/3 32/3/3 33/4/3 24/1/3
f 31/1/5 34/2/5 33/3/5 32/4/5
f 12/1/6 30/2/6 34/3/6 31/4/6
f 36/2/1 37/3/1 38/4/1 35/1/1
f 36/1/2 35/4/2 40/3/2 39/2/2
f 35/2/3 38/3/3 41/4/3 40/1/3
f 39/1/4 40/2/4 41/3/4 42/4/4
f 37/1/5 42/2/5 41/3/5 38/4/5
f 36/1/6 39/2/6 42/3/6 37/4/6
f 15/2/1 16/3/1 12/4/1 11/1/1
f 15/1/2 11/4/2 29/3/2 43/2/2
f 11/2/3 12/3/3 30/4/3 29/1/3
f 43/1/4 29/2/4 30/3/4 44/4/4
f 16/1/5 44/2/5 30/3/5 12/4/5
f 15/1/6 43/2/6 44/3/6 16/4/6
f 45/2/1 46/3/1 16/4/1 15/1/1
f 45/1/2 15/4/2 43/3/2 47/2/2
f 15/2/3 16/3/3 44/4/3 43/1/3
f 47/1/4 43/2/4 44/3/4 48/4/4
f 46/1/5 48/2/5 44/3/5 16/4/5
f 45/1/6 47/2/6 48/3/6 46/4/6
f 19/2/1 22/3/1 21/4/1 20/1/1
f 19/1/2 20/4/2 50/3/2 49/2/2
f 20/2/3 21/3/3 51/4/3 50/1/3
f 49/1/4 50/2/4 51/3/4 52/4/4
f 22/1/5 52/2/5 51/3/5 21/4/5
f 19/1/6 49/2/6 52/3/6 22/4/6
f 28/2/1 23/3/1 19/4/1 53/1/1
f 28/1/2 53/4/2 55/3/2 54/2/2
f 53/2/3 19/3/3 49/4/3 55/1/3
f 54/1/4 55/2/4 49/3/4 56/4/4
f 23/1/5 56/2/5 49/3/5 19/4/5
f 23/2/1 24/3/1 22/4/1 19/1/1
f 23/1/2 19/4/2 49/3/2 56/2/2
f 19/2/3 22/3/3 52/4/3 49/1/3
f 56/1/4 49/2/4 52/3/4 57/4/4
f 24/1/5 57/2/5 52/3/5 22/4/5
f 24/2/1 33/3/1 58/4/1 22/1/1
f 24/1/2 22/4/2 52/3/2 57/2/2
f 22/2/3 58/3/3 59/4/3 52/1/3
f 57/1/4 52/2/4 59/3/4 60/4/4
f 33/1/5 60/2/5 59/3/5 58/4/5
f 40/2/1 41/3/1 62/4/1 61/1/1
f 40/1/2 61/4/2 64/3/2 63/2/2
f 61/2/3 62/3/3 65/4/3 64/1/3
f 63/1/4 64/2/4 65/3/4 66/4/4
f 41/1/5 66/2/5 65/3/5 62/4/5
f 40/1/6 63/2/6 66/3/6 41/4/6
f 39/2/1 42/3/1 41/4/1 40/1/1
f 40/2/3 41/3/3 66/4/3 63/1/3
f 75/1/4 63/2/4 66/3/4 76/4/4
f 42/1/5 76/2/5 66/3/5 41/4/5
f 39/1/6 75/2/6 76/3/6 42/4/6
f 77/2/1 43/3/1 29/4/1 27/1/1
f 77/1/2 27/4/2 71/3/2 78/2/2
f 78/1/4 71/2/4 72/3/4 79/4/4
f 43/1/5 79/2/5 72/3/5 29/4/5
f 77/1/6 78/2/6 79/3/6 43/4/6
f 43/2/1 44/3/1 30/4/1 29/1/1
f 43/1/2 29/4/2 72/3/2 79/2/2
f 79/1/4 72/2/4 73/3/4 80/4/4
f 44/1/5 80/2/5 73/3/5 30/4/5
f 43/1/6 79/2/6 80/3/6 44/4/6
f 44/2/1 81/3/1 34/4/1 30/1/1
f 44/1/2 30/4/2 73/3/2 80/2/2
f 80/1/4 73/2/4 74/3/4 82/4/4
f 81/1/5 82/2/5 74/3/5 34/4/5
f 44/1/6 80/2/6 82/3/6 81/4/6
f 83/2/1 84/3/1 42/4/1 39/1/1
f 83/1/2 39/4/2 75/3/2 85/2/2
f 39/2/3 42/3/3 76/4/3 75/1/3
f 85/1/4 75/2/4 76/3/4 86/4/4
f 84/1/5 86/2/5 76/3/5 42/4/5
f 83/1/6 85/2/6 86/3/6 84/4/6
f 47/2/1 48/3/1 44/4/1 43/1/1
f 47/1/2 43/4/2 79/3/2 87/2/2
f 43/2/3 44/3/3 80/4/3 79/1/3
f 87/1/4 79/2/4 80/3/4 88/4/4
f 48/1/5 88/2/5 80/3/5 44/4/5
f 47/1/6 87/2/6 88/3/6 48/4/6
f 49/2/1 52/3/1 51/4/1 50/1/1
f 49/1/2 50/4/2 90/3/2 89/2/2
f 50/2/3 51/3/3 91/4/3 90/1/3
f 89/1/4 90/2/4 91/3/4 92/4/4
f 52/1/5 92/2/5 91/3/5 51/4/5
f 49/1/6 89/2/6 92/3/6 52/4/6
f 56/2/1 57/3/1 52/4/1 49/1/1
f 56/1/2 49/4/2 89/3/2 93/2/2
f 49/2/3 52/3/3 92/4/3 89/1/3
f 93/1/4 89/2/4 92/3/4 94/4/4
f 57/1/5 94/2/5 92/3/5 52/4/5
f 56/1/6 93/2/6 94/3/6 57/4/6
f 71/1/2 54/4/2 96/3/2 95/2/2
f 54/2/3 56/3/3 93/4/3 96/1/3
f 95/1/4 96/2/4 93/3/4 97/4/4
f 72/1/5 97/2/5 93/3/5 56/4/5
f 71/1/6 95/2/6 97/3/6 72/4/6
f 72/1/2 56/4/2 93/3/2 97/2/2
f 56/2/3 57/3/3 94/4/3 93/1/3
f 97/1/4 93/2/4 94/3/4 98/4/4
f 73/1/5 98/2/5 94/3/5 57/4/5
f 72/1/6 97/2/6 98/3/6 73/4/6
f 73/1/2 57/4/2 94/3/2 98/2/2
f 57/2/3 60/3/3 99/4/3 94/1/3
f 98/1/4 94/2/4 99/3/4 100/4/4
f 74/1/5 100/2/5 99/3/5 60/4/5
f 73/1/6 98/2/6 100/3/6 74/4/6
f 75/2/1 76/3/1 66/4/1 63/1/1
f 75/1/2 63/4/2 102/3/2 101/2/2
f 63/2/3 66/3/3 103/4/3 102/1/3
f 101/1/4 102/2/4 103/3/4 104/4/4
f 76/1/5 104/2/5 103/3/5 66/4/5
f 75/1/6 101/2/6 104/3/6 76/4/6
f 79/2/1 80/3/1 73/4/1 72/1/1
f 79/1/2 72/4/2 97/3/2 105/2/2
f 72/2/3 73/3/3 98/4/3 97/1/3
f 105/1/4 97/2/4 98/3/4 106/4/4
f 80/1/5 106/2/5 98/3/5 73/4/5
f 79/1/6 105/2/6 106/3/6 80/4/6
f 87/2/1 88/3/1 80/4/1 79/1/1
f 87/1/2 79/4/2 105/3/2 107/2/2
f 79/2/3 80/3/3 106/4/3 105/1/3
f 107/1/4 105/2/4 106/3/4 108/4/4
f 88/1/5 108/2/5 106/3/5 80/4/5
f 87/1/6 107/2/6 108/3/6 88/4/6
f 93/2/1 94/3/1 92/4/1 89/1/1
f 93/1/2 89/4/2 110/3/2 109/2/2
f 89/2/3 92/3/3 111/4/3 110/1/3
f 109/1/4 110/2/4 111/3/4 112/4/4
f 94/1/5 112/2/5 111/3/5 92/4/5
f 93/1/6 109/2/6 112/3/6 94/4/6
f 97/2/1 98/3/1 94/4/1 93/1/1
f 97/1/2 93/4/2 109/3/2 113/2/2
f 93/2/3 94/3/3 112/4/3 109/1/3
f 113/1/4 109/2/4 112/3/4 114/4/4
f 98/1/5 114/2/5 112/3/5 94/4/5
f 97/1/6 113/2/6 114/3/6 98/4/6
f 105/2/1 106/3/1 98/4/1 97/1/1
f 105/1/2 97/4/2 113/3/2 115/2/2
f 97/2/3 98/3/3 114/4/3 113/1/3
f 115/1/4 113/2/4 114/3/4 116/4/4
f 106/1/5 116/2/5 114/3/5 98/4/5
f 105/1/6 115/2/6 116/3/6 106/4/6
