# Wavefront OBJ file made by Mineways version 10.01, http://mineways.com
# World:  (2)
# Terrain file name: D:\Application\mineways\terrainExt.png
# Color scheme: Standard
# Sun Oct 16 20:30:26 2022

# Selection location min to max: 37, -60, -144 to 42, 319, -140
#   Non-empty selection location min to max: 37, -60, -144 to 41, -54, -140

# Set render type: Wavefront OBJ absolute indices
# Units for the model vertex data itself: meters

# 168 vertices, 327 faces (654 triangles), 59 blocks, 0 billboards/bits
# block dimensions: X=5 by Y=7 (height) by Z=5 blocks
# Elevation shading: no
# Lighting: no
# Transparent water: no
# Map grid: no
# File type: Export all textures to three large images
# Texture output RGB: YES
# Texture output A: YES
# Texture output RGBA: YES
# Make groups objects: no
# Export separate objects: no
# Individual blocks: no
#   Split by block type: no
# G3D full material: YES
# Make Z the up direction instead of Y: no
# Create composite overlay faces: no
# Center model: YES
# Export lesser blocks: YES
# Fatten lesser blocks: no
# Create block faces at the borders: YES
# Make tree leaves solid: no
# Use biomes: no
# Rotate model 0.000000 degrees
# Scale model by making each block 1000 mm high
# Data operation options:
#   Fill air bubbles: no; Seal off entrances: no; Fill in isolated tunnels in base of model: no
#   Connect parts sharing an edge: no; Connect corner tips: no; Weld all shared edges: no
#   Delete floating objects: trees and parts smaller than 16 blocks: no
#   Hollow out bottom of model, making the walls 1000 mm thick: no; Superhollow: no
# Melt snow blocks: no
#   Debug: show separate parts as colors: no
#   Debug: show weld blocks in bright colors: no

# Full world path: D:\Minecraft\PCL\.minecraft\versions\1.18.2\saves\ (2)
# Full terrainExt.png path: D:\Application\mineways\terrainExt.png
# Full current path: D:\Application\mineways

mtllib Minecraft.mtl

o _(2)__37_-60_-144_to_42_319_-140
vn -1 0 0
vn 0 -1 0
vn 0 0 -1
vn 1 0 0
vn 0 1 0
vn 0 0 1
vn -0.707107 0 -0.707107
vn -0.707107 0 0.707107
vn 0.707107 0 -0.707107
vn 0.707107 0 0.707107
vn -0.707107 -0.707107 0
vn 0 -0.707107 -0.707107
vn 0.707107 -0.707107 0
vn 0 -0.707107 0.707107
vn -0.707107 0.707107 0
vn 0 0.707107 -0.707107
vn 0.707107 0.707107 0
vn 0 0.707107 0.707107
vn -0.92388 0 -0.382683
vn -0.92388 0 0.382683
vn 0.92388 0 -0.382683
vn 0.92388 0 0.382683
vn -0.382683 0 -0.92388
vn -0.382683 0 0.92388
vn 0.382683 0 -0.92388
vn 0.382683 0 0.92388
vn -0.397273 0.9177 0
vn 0.397273 -0.9177 0
vn 0.397273 0.9177 0
vn -0.397273 -0.9177 0
vn 0 0.9177 -0.397273
vn 0 -0.9177 0.397273
vn 0 0.9177 0.397273
vn 0 -0.9177 -0.397273
vn -0.440932 0.897541 0
vn 0.440932 -0.897541 0
vn 0.440932 0.897541 0
vn -0.440932 -0.897541 0
vn 0 0.897541 -0.440932
vn 0 -0.897541 0.440932
vn 0 0.897541 0.440932
vn 0 -0.897541 -0.440932
# spruce_leaves
vt 0.352539062 0.948242188
vt 0.368164062 0.948242188
vt 0.368164062 0.963867188
vt 0.352539062 0.963867188
# spruce_log
vt 0.071289062 0.948242188
vt 0.086914062 0.948242188
vt 0.086914062 0.963867188
vt 0.071289062 0.963867188
# spruce_log_top
vt 0.352539062 0.930664062
vt 0.368164062 0.930664062
vt 0.368164062 0.946289062
vt 0.352539062 0.946289062
v -3 1 -1
v -3 1 0
v -3 2 0
v -3 2 -1
v -2 1 0
v -2 1 -1
v -2 2 -1
v -2 2 0
v -3 3 -1
v -3 3 0
v -3 4 0
v -3 4 -1
v -2 3 0
v -2 3 -1
v -2 4 -1
v -2 4 0
v -3 1 1
v -3 2 1
v -2 1 1
v -2 2 1
v -3 3 1
v -3 4 1
v -2 3 1
v -2 4 1
v -3 1 2
v -3 2 2
v -2 1 2
v -2 2 2
v -3 3 2
v -3 4 2
v -2 3 2
v -2 4 2
v -2 1 -2
v -2 2 -2
v -1 1 -1
v -1 1 -2
v -1 2 -2
v -1 2 -1
v -2 3 -2
v -2 4 -2
v -1 3 -1
v -1 3 -2
v -1 4 -2
v -1 4 -1
v -1 1 0
v -1 2 0
v -1 3 0
v -1 4 0
v -1 1 1
v -1 2 1
v -1 3 1
v -1 4 1
v -2 5 1
v -2 5 0
v -1 5 0
v -1 5 1
v -2 6 0
v -2 6 1
v -2 7 1
v -2 7 0
v -1 6 1
v -1 6 0
v -1 7 0
v -1 7 1
v -1 1 2
v -1 2 2
v -1 3 2
v -1 4 2
v -2 1 3
v -2 2 3
v -1 1 3
v -1 2 3
v -2 3 3
v -2 4 3
v -1 3 3
v -1 4 3
v 0 1 -1
v 0 1 -2
v 0 2 -2
v 0 2 -1
v 0 3 -1
v 0 3 -2
v 0 4 -2
v 0 4 -1
v 0 1 0
v 0 2 0
v 0 3 0
v 0 4 0
v -1 5 -1
v 0 5 -1
v 0 5 0
v -1 6 -1
v -1 7 -1
v 0 6 0
v 0 6 -1
v 0 7 -1
v 0 7 0
v -1 0 0
v -1 0 1
v 0 0 1
v 0 0 0
v 0 1 1
v 0 2 1
v 0 3 1
v 0 4 1
v 0 5 1
v 0 6 1
v 0 7 1
v 0 1 2
v 0 2 2
v 0 3 2
v 0 4 2
v -1 5 2
v 0 5 2
v -1 6 2
v -1 7 2
v 0 6 2
v 0 7 2
v 0 1 3
v 0 2 3
v 0 3 3
v 0 4 3
v 1 1 -1
v 1 1 -2
v 1 2 -2
v 1 2 -1
v 1 3 -1
v 1 3 -2
v 1 4 -2
v 1 4 -1
v 1 1 0
v 1 2 0
v 1 3 0
v 1 4 0
v 1 1 1
v 1 2 1
v 1 3 1
v 1 4 1
v 1 5 0
v 1 5 1
v 1 6 1
v 1 6 0
v 1 7 0
v 1 7 1
v 1 1 2
v 1 2 2
v 1 3 2
v 1 4 2
v 1 1 3
v 1 2 3
v 1 3 3
v 1 4 3
v 2 1 0
v 2 1 -1
v 2 2 -1
v 2 2 0
v 2 3 0
v 2 3 -1
v 2 4 -1
v 2 4 0
v 2 1 1
v 2 2 1
v 2 3 1
v 2 4 1
v 2 1 2
v 2 2 2
v 2 3 2
v 2 4 2

usemtl MC_material
f 99/6/1 49/7/1 45/8/1 98/5/1
f 99/9/2 98/12/2 101/11/2 100/10/2
f 98/6/3 45/7/3 85/8/3 101/5/3
f 100/5/4 101/6/4 85/7/4 102/8/4
f 99/5/6 100/6/6 102/7/6 49/8/6
f 49/6/1 50/7/1 46/8/1 45/5/1
f 45/6/3 46/7/3 86/8/3 85/5/3
f 102/5/4 85/6/4 86/7/4 103/8/4
f 49/5/6 102/6/6 103/7/6 50/8/6
f 50/6/1 51/7/1 47/8/1 46/5/1
f 46/6/3 47/7/3 87/8/3 86/5/3
f 103/5/4 86/6/4 87/7/4 104/8/4
f 50/5/6 103/6/6 104/7/6 51/8/6
f 51/6/1 52/7/1 48/8/1 47/5/1
f 47/6/3 48/7/3 88/8/3 87/5/3
f 104/5/4 87/6/4 88/7/4 105/8/4
f 51/5/6 104/6/6 105/7/6 52/8/6
f 52/6/1 56/7/1 55/8/1 48/5/1
f 48/6/3 55/7/3 91/8/3 88/5/3
f 105/5/4 88/6/4 91/7/4 106/8/4
f 52/5/6 105/6/6 106/7/6 56/8/6
f 56/6/1 61/7/1 62/8/1 55/5/1
f 55/6/3 62/7/3 94/8/3 91/5/3
f 106/5/4 91/6/4 94/7/4 107/8/4
f 61/9/5 107/10/5 94/11/5 62/12/5
f 56/5/6 106/6/6 107/7/6 61/8/6
f 2/2/1 3/3/1 4/4/1 1/1/1
f 2/1/2 1/4/2 6/3/2 5/2/2
f 1/2/3 4/3/3 7/4/3 6/1/3
f 5/1/4 6/2/4 7/3/4 8/4/4
f 3/1/5 8/2/5 7/3/5 4/4/5
f 2/1/6 5/2/6 8/3/6 3/4/6
f 10/2/1 11/3/1 12/4/1 9/1/1
f 10/1/2 9/4/2 14/3/2 13/2/2
f 9/2/3 12/3/3 15/4/3 14/1/3
f 13/1/4 14/2/4 15/3/4 16/4/4
f 11/1/5 16/2/5 15/3/5 12/4/5
f 10/1/6 13/2/6 16/3/6 11/4/6
f 17/2/1 18/3/1 3/4/1 2/1/1
f 17/1/2 2/4/2 5/3/2 19/2/2
f 2/2/3 3/3/3 8/4/3 5/1/3
f 19/1/4 5/2/4 8/3/4 20/4/4
f 18/1/5 20/2/5 8/3/5 3/4/5
f 17/1/6 19/2/6 20/3/6 18/4/6
f 21/2/1 22/3/1 11/4/1 10/1/1
f 21/1/2 10/4/2 13/3/2 23/2/2
f 10/2/3 11/3/3 16/4/3 13/1/3
f 23/1/4 13/2/4 16/3/4 24/4/4
f 22/1/5 24/2/5 16/3/5 11/4/5
f 21/1/6 23/2/6 24/3/6 22/4/6
f 25/2/1 26/3/1 18/4/1 17/1/1
f 25/1/2 17/4/2 19/3/2 27/2/2
f 17/2/3 18/3/3 20/4/3 19/1/3
f 27/1/4 19/2/4 20/3/4 28/4/4
f 26/1/5 28/2/5 20/3/5 18/4/5
f 25/1/6 27/2/6 28/3/6 26/4/6
f 29/2/1 30/3/1 22/4/1 21/1/1
f 29/1/2 21/4/2 23/3/2 31/2/2
f 21/2/3 22/3/3 24/4/3 23/1/3
f 31/1/4 23/2/4 24/3/4 32/4/4
f 30/1/5 32/2/5 24/3/5 22/4/5
f 29/1/6 31/2/6 32/3/6 30/4/6
f 6/2/1 7/3/1 34/4/1 33/1/1
f 6/1/2 33/4/2 36/3/2 35/2/2
f 33/2/3 34/3/3 37/4/3 36/1/3
f 35/1/4 36/2/4 37/3/4 38/4/4
f 7/1/5 38/2/5 37/3/5 34/4/5
f 6/1/6 35/2/6 38/3/6 7/4/6
f 14/2/1 15/3/1 40/4/1 39/1/1
f 14/1/2 39/4/2 42/3/2 41/2/2
f 39/2/3 40/3/3 43/4/3 42/1/3
f 41/1/4 42/2/4 43/3/4 44/4/4
f 15/1/5 44/2/5 43/3/5 40/4/5
f 14/1/6 41/2/6 44/3/6 15/4/6
f 5/2/1 8/3/1 7/4/1 6/1/1
f 5/1/2 6/4/2 35/3/2 45/2/2
f 6/2/3 7/3/3 38/4/3 35/1/3
f 45/1/4 35/2/4 38/3/4 46/4/4
f 8/1/5 46/2/5 38/3/5 7/4/5
f 5/1/6 45/2/6 46/3/6 8/4/6
f 13/2/1 16/3/1 15/4/1 14/1/1
f 13/1/2 14/4/2 41/3/2 47/2/2
f 14/2/3 15/3/3 44/4/3 41/1/3
f 47/1/4 41/2/4 44/3/4 48/4/4
f 16/1/5 48/2/5 44/3/5 15/4/5
f 13/1/6 47/2/6 48/3/6 16/4/6
f 19/2/1 20/3/1 8/4/1 5/1/1
f 19/1/2 5/4/2 45/3/2 49/2/2
f 5/2/3 8/3/3 46/4/3 45/1/3
f 20/1/5 50/2/5 46/3/5 8/4/5
f 19/1/6 49/2/6 50/3/6 20/4/6
f 20/2/1 23/3/1 13/4/1 8/1/1
f 20/1/2 8/4/2 46/3/2 50/2/2
f 8/2/3 13/3/3 47/4/3 46/1/3
f 23/1/5 51/2/5 47/3/5 13/4/5
f 20/1/6 50/2/6 51/3/6 23/4/6
f 23/2/1 24/3/1 16/4/1 13/1/1
f 23/1/2 13/4/2 47/3/2 51/2/2
f 13/2/3 16/3/3 48/4/3 47/1/3
f 24/1/5 52/2/5 48/3/5 16/4/5
f 23/1/6 51/2/6 52/3/6 24/4/6
f 24/2/1 53/3/1 54/4/1 16/1/1
f 24/1/2 16/4/2 48/3/2 52/2/2
f 16/2/3 54/3/3 55/4/3 48/1/3
f 53/1/5 56/2/5 55/3/5 54/4/5
f 24/1/6 52/2/6 56/3/6 53/4/6
f 58/2/1 59/3/1 60/4/1 57/1/1
f 58/1/2 57/4/2 62/3/2 61/2/2
f 57/2/3 60/3/3 63/4/3 62/1/3
f 61/1/4 62/2/4 63/3/4 64/4/4
f 59/1/5 64/2/5 63/3/5 60/4/5
f 58/1/6 61/2/6 64/3/6 59/4/6
f 27/2/1 28/3/1 20/4/1 19/1/1
f 27/1/2 19/4/2 49/3/2 65/2/2
f 19/2/3 20/3/3 50/4/3 49/1/3
f 65/1/4 49/2/4 50/3/4 66/4/4
f 28/1/5 66/2/5 50/3/5 20/4/5
f 27/1/6 65/2/6 66/3/6 28/4/6
f 31/2/1 32/3/1 24/4/1 23/1/1
f 31/1/2 23/4/2 51/3/2 67/2/2
f 23/2/3 24/3/3 52/4/3 51/1/3
f 67/1/4 51/2/4 52/3/4 68/4/4
f 32/1/5 68/2/5 52/3/5 24/4/5
f 31/1/6 67/2/6 68/3/6 32/4/6
f 69/2/1 70/3/1 28/4/1 27/1/1
f 69/1/2 27/4/2 65/3/2 71/2/2
f 27/2/3 28/3/3 66/4/3 65/1/3
f 71/1/4 65/2/4 66/3/4 72/4/4
f 70/1/5 72/2/5 66/3/5 28/4/5
f 69/1/6 71/2/6 72/3/6 70/4/6
f 73/2/1 74/3/1 32/4/1 31/1/1
f 73/1/2 31/4/2 67/3/2 75/2/2
f 31/2/3 32/3/3 68/4/3 67/1/3
f 75/1/4 67/2/4 68/3/4 76/4/4
f 74/1/5 76/2/5 68/3/5 32/4/5
f 73/1/6 75/2/6 76/3/6 74/4/6
f 35/2/1 38/3/1 37/4/1 36/1/1
f 35/1/2 36/4/2 78/3/2 77/2/2
f 36/2/3 37/3/3 79/4/3 78/1/3
f 77/1/4 78/2/4 79/3/4 80/4/4
f 38/1/5 80/2/5 79/3/5 37/4/5
f 35/1/6 77/2/6 80/3/6 38/4/6
f 41/2/1 44/3/1 43/4/1 42/1/1
f 41/1/2 42/4/2 82/3/2 81/2/2
f 42/2/3 43/3/3 83/4/3 82/1/3
f 81/1/4 82/2/4 83/3/4 84/4/4
f 44/1/5 84/2/5 83/3/5 43/4/5
f 41/1/6 81/2/6 84/3/6 44/4/6
f 45/2/1 46/3/1 38/4/1 35/1/1
f 45/1/2 35/4/2 77/3/2 85/2/2
f 35/2/3 38/3/3 80/4/3 77/1/3
f 85/1/4 77/2/4 80/3/4 86/4/4
f 46/1/5 86/2/5 80/3/5 38/4/5
f 46/2/1 47/3/1 41/4/1 38/1/1
f 46/1/2 38/4/2 80/3/2 86/2/2
f 38/2/3 41/3/3 81/4/3 80/1/3
f 86/1/4 80/2/4 81/3/4 87/4/4
f 47/1/5 87/2/5 81/3/5 41/4/5
f 47/2/1 48/3/1 44/4/1 41/1/1
f 47/1/2 41/4/2 81/3/2 87/2/2
f 41/2/3 44/3/3 84/4/3 81/1/3
f 87/1/4 81/2/4 84/3/4 88/4/4
f 48/1/5 88/2/5 84/3/5 44/4/5
f 48/2/1 55/3/1 89/4/1 44/1/1
f 48/1/2 44/4/2 84/3/2 88/2/2
f 44/2/3 89/3/3 90/4/3 84/1/3
f 88/1/4 84/2/4 90/3/4 91/4/4
f 55/1/5 91/2/5 90/3/5 89/4/5
f 62/2/1 63/3/1 93/4/1 92/1/1
f 62/1/2 92/4/2 95/3/2 94/2/2
f 92/2/3 93/3/3 96/4/3 95/1/3
f 94/1/4 95/2/4 96/3/4 97/4/4
f 63/1/5 97/2/5 96/3/5 93/4/5
f 62/1/6 94/2/6 97/3/6 63/4/6
f 61/2/1 64/3/1 63/4/1 62/1/1
f 62/2/3 63/3/3 97/4/3 94/1/3
f 107/1/4 94/2/4 97/3/4 108/4/4
f 64/1/5 108/2/5 97/3/5 63/4/5
f 61/1/6 107/2/6 108/3/6 64/4/6
f 65/2/1 66/3/1 50/4/1 49/1/1
f 65/1/2 49/4/2 102/3/2 109/2/2
f 109/1/4 102/2/4 103/3/4 110/4/4
f 66/1/5 110/2/5 103/3/5 50/4/5
f 65/1/6 109/2/6 110/3/6 66/4/6
f 66/2/1 67/3/1 51/4/1 50/1/1
f 66/1/2 50/4/2 103/3/2 110/2/2
f 110/1/4 103/2/4 104/3/4 111/4/4
f 67/1/5 111/2/5 104/3/5 51/4/5
f 66/1/6 110/2/6 111/3/6 67/4/6
f 67/2/1 68/3/1 52/4/1 51/1/1
f 67/1/2 51/4/2 104/3/2 111/2/2
f 111/1/4 104/2/4 105/3/4 112/4/4
f 68/1/5 112/2/5 105/3/5 52/4/5
f 67/1/6 111/2/6 112/3/6 68/4/6
f 68/2/1 113/3/1 56/4/1 52/1/1
f 68/1/2 52/4/2 105/3/2 112/2/2
f 112/1/4 105/2/4 106/3/4 114/4/4
f 113/1/5 114/2/5 106/3/5 56/4/5
f 68/1/6 112/2/6 114/3/6 113/4/6
f 115/2/1 116/3/1 64/4/1 61/1/1
f 115/1/2 61/4/2 107/3/2 117/2/2
f 61/2/3 64/3/3 108/4/3 107/1/3
f 117/1/4 107/2/4 108/3/4 118/4/4
f 116/1/5 118/2/5 108/3/5 64/4/5
f 115/1/6 117/2/6 118/3/6 116/4/6
f 71/2/1 72/3/1 66/4/1 65/1/1
f 71/1/2 65/4/2 109/3/2 119/2/2
f 65/2/3 66/3/3 110/4/3 109/1/3
f 119/1/4 109/2/4 110/3/4 120/4/4
f 72/1/5 120/2/5 110/3/5 66/4/5
f 71/1/6 119/2/6 120/3/6 72/4/6
f 75/2/1 76/3/1 68/4/1 67/1/1
f 75/1/2 67/4/2 111/3/2 121/2/2
f 67/2/3 68/3/3 112/4/3 111/1/3
f 121/1/4 111/2/4 112/3/4 122/4/4
f 76/1/5 122/2/5 112/3/5 68/4/5
f 75/1/6 121/2/6 122/3/6 76/4/6
f 77/2/1 80/3/1 79/4/1 78/1/1
f 77/1/2 78/4/2 124/3/2 123/2/2
f 78/2/3 79/3/3 125/4/3 124/1/3
f 123/1/4 124/2/4 125/3/4 126/4/4
f 80/1/5 126/2/5 125/3/5 79/4/5
f 77/1/6 123/2/6 126/3/6 80/4/6
f 81/2/1 84/3/1 83/4/1 82/1/1
f 81/1/2 82/4/2 128/3/2 127/2/2
f 82/2/3 83/3/3 129/4/3 128/1/3
f 127/1/4 128/2/4 129/3/4 130/4/4
f 84/1/5 130/2/5 129/3/5 83/4/5
f 81/1/6 127/2/6 130/3/6 84/4/6
f 85/2/1 86/3/1 80/4/1 77/1/1
f 85/1/2 77/4/2 123/3/2 131/2/2
f 77/2/3 80/3/3 126/4/3 123/1/3
f 131/1/4 123/2/4 126/3/4 132/4/4
f 86/1/5 132/2/5 126/3/5 80/4/5
f 85/1/6 131/2/6 132/3/6 86/4/6
f 87/2/1 88/3/1 84/4/1 81/1/1
f 87/1/2 81/4/2 127/3/2 133/2/2
f 81/2/3 84/3/3 130/4/3 127/1/3
f 133/1/4 127/2/4 130/3/4 134/4/4
f 88/1/5 134/2/5 130/3/5 84/4/5
f 87/1/6 133/2/6 134/3/6 88/4/6
f 102/1/2 85/4/2 131/3/2 135/2/2
f 85/2/3 86/3/3 132/4/3 131/1/3
f 135/1/4 131/2/4 132/3/4 136/4/4
f 103/1/5 136/2/5 132/3/5 86/4/5
f 102/1/6 135/2/6 136/3/6 103/4/6
f 103/1/2 86/4/2 132/3/2 136/2/2
f 86/2/3 87/3/3 133/4/3 132/1/3
f 136/1/4 132/2/4 133/3/4 137/4/4
f 104/1/5 137/2/5 133/3/5 87/4/5
f 103/1/6 136/2/6 137/3/6 104/4/6
f 104/1/2 87/4/2 133/3/2 137/2/2
f 87/2/3 88/3/3 134/4/3 133/1/3
f 137/1/4 133/2/4 134/3/4 138/4/4
f 105/1/5 138/2/5 134/3/5 88/4/5
f 104/1/6 137/2/6 138/3/6 105/4/6
f 105/1/2 88/4/2 134/3/2 138/2/2
f 88/2/3 91/3/3 139/4/3 134/1/3
f 138/1/4 134/2/4 139/3/4 140/4/4
f 106/1/5 140/2/5 139/3/5 91/4/5
f 105/1/6 138/2/6 140/3/6 106/4/6
f 107/2/1 108/3/1 97/4/1 94/1/1
f 107/1/2 94/4/2 142/3/2 141/2/2
f 94/2/3 97/3/3 143/4/3 142/1/3
f 141/1/4 142/2/4 143/3/4 144/4/4
f 108/1/5 144/2/5 143/3/5 97/4/5
f 107/1/6 141/2/6 144/3/6 108/4/6
f 109/2/1 110/3/1 103/4/1 102/1/1
f 109/1/2 102/4/2 135/3/2 145/2/2
f 102/2/3 103/3/3 136/4/3 135/1/3
f 145/1/4 135/2/4 136/3/4 146/4/4
f 110/1/5 146/2/5 136/3/5 103/4/5
f 109/1/6 145/2/6 146/3/6 110/4/6
f 111/2/1 112/3/1 105/4/1 104/1/1
f 111/1/2 104/4/2 137/3/2 147/2/2
f 104/2/3 105/3/3 138/4/3 137/1/3
f 147/1/4 137/2/4 138/3/4 148/4/4
f 112/1/5 148/2/5 138/3/5 105/4/5
f 111/1/6 147/2/6 148/3/6 112/4/6
f 119/2/1 120/3/1 110/4/1 109/1/1
f 119/1/2 109/4/2 145/3/2 149/2/2
f 109/2/3 110/3/3 146/4/3 145/1/3
f 149/1/4 145/2/4 146/3/4 150/4/4
f 120/1/5 150/2/5 146/3/5 110/4/5
f 119/1/6 149/2/6 150/3/6 120/4/6
f 121/2/1 122/3/1 112/4/1 111/1/1
f 121/1/2 111/4/2 147/3/2 151/2/2
f 111/2/3 112/3/3 148/4/3 147/1/3
f 151/1/4 147/2/4 148/3/4 152/4/4
f 122/1/5 152/2/5 148/3/5 112/4/5
f 121/1/6 151/2/6 152/3/6 122/4/6
f 131/2/1 132/3/1 126/4/1 123/1/1
f 131/1/2 123/4/2 154/3/2 153/2/2
f 123/2/3 126/3/3 155/4/3 154/1/3
f 153/1/4 154/2/4 155/3/4 156/4/4
f 132/1/5 156/2/5 155/3/5 126/4/5
f 131/1/6 153/2/6 156/3/6 132/4/6
f 133/2/1 134/3/1 130/4/1 127/1/1
f 133/1/2 127/4/2 158/3/2 157/2/2
f 127/2/3 130/3/3 159/4/3 158/1/3
f 157/1/4 158/2/4 159/3/4 160/4/4
f 134/1/5 160/2/5 159/3/5 130/4/5
f 133/1/6 157/2/6 160/3/6 134/4/6
f 135/2/1 136/3/1 132/4/1 131/1/1
f 135/1/2 131/4/2 153/3/2 161/2/2
f 131/2/3 132/3/3 156/4/3 153/1/3
f 161/1/4 153/2/4 156/3/4 162/4/4
f 136/1/5 162/2/5 156/3/5 132/4/5
f 135/1/6 161/2/6 162/3/6 136/4/6
f 137/2/1 138/3/1 134/4/1 133/1/1
f 137/1/2 133/4/2 157/3/2 163/2/2
f 133/2/3 134/3/3 160/4/3 157/1/3
f 163/1/4 157/2/4 160/3/4 164/4/4
f 138/1/5 164/2/5 160/3/5 134/4/5
f 137/1/6 163/2/6 164/3/6 138/4/6
f 145/2/1 146/3/1 136/4/1 135/1/1
f 145/1/2 135/4/2 161/3/2 165/2/2
f 135/2/3 136/3/3 162/4/3 161/1/3
f 165/1/4 161/2/4 162/3/4 166/4/4
f 146/1/5 166/2/5 162/3/5 136/4/5
f 145/1/6 165/2/6 166/3/6 146/4/6
f 147/2/1 148/3/1 138/4/1 137/1/1
f 147/1/2 137/4/2 163/3/2 167/2/2
f 137/2/3 138/3/3 164/4/3 163/1/3
f 167/1/4 163/2/4 164/3/4 168/4/4
f 148/1/5 168/2/5 164/3/5 138/4/5
f 147/1/6 167/2/6 168/3/6 148/4/6
