# Wavefront OBJ file made by Mineways version 10.01, http://mineways.com
# World:  (2)
# Terrain file name: D:\Application\mineways\terrainExt.png
# Color scheme: Standard
# Sun Oct 16 20:34:12 2022

# Selection location min to max: 35, -61, -152 to 37, 319, -150
#   Non-empty selection location min to max: 35, -61, -152 to 37, -61, -150

# Set render type: Wavefront OBJ absolute indices
# Units for the model vertex data itself: meters

# 52 vertices, 30 faces (60 triangles), 9 blocks, 0 billboards/bits
# block dimensions: X=3 by Y=1 (height) by Z=3 blocks
# Elevation shading: no
# Lighting: no
# Transparent water: no
# Map grid: no
# File type: Export all textures to three large images
# Texture output RGB: YES
# Texture output A: YES
# Texture output RGBA: YES
# Make groups objects: no
# Export separate objects: no
# Individual blocks: no
#   Split by block type: no
# G3D full material: YES
# Make Z the up direction instead of Y: no
# Create composite overlay faces: no
# Center model: YES
# Export lesser blocks: YES
# Fatten lesser blocks: no
# Create block faces at the borders: YES
# Make tree leaves solid: no
# Use biomes: no
# Rotate model 0.000000 degrees
# Scale model by making each block 1000 mm high
# Data operation options:
#   Fill air bubbles: no; Seal off entrances: no; Fill in isolated tunnels in base of model: no
#   Connect parts sharing an edge: no; Connect corner tips: no; Weld all shared edges: no
#   Delete floating objects: trees and parts smaller than 16 blocks: no
#   Hollow out bottom of model, making the walls 1000 mm thick: no; Superhollow: no
# Melt snow blocks: no
#   Debug: show separate parts as colors: no
#   Debug: show weld blocks in bright colors: no

# Full world path: D:\Minecraft\PCL\.minecraft\versions\1.18.2\saves\ (2)
# Full terrainExt.png path: D:\Application\mineways\terrainExt.png
# Full current path: D:\Application\mineways

mtllib Minecraft.mtl

o _(2)__35_-61_-152_to_37_319_-150
vn -1 0 0
vn 0 -1 0
vn 0 0 -1
vn 1 0 0
vn 0 1 0
vn 0 0 1
vn -0.707107 0 -0.707107
vn -0.707107 0 0.707107
vn 0.707107 0 -0.707107
vn 0.707107 0 0.707107
vn -0.707107 -0.707107 0
vn 0 -0.707107 -0.707107
vn 0.707107 -0.707107 0
vn 0 -0.707107 0.707107
vn -0.707107 0.707107 0
vn 0 0.707107 -0.707107
vn 0.707107 0.707107 0
vn 0 0.707107 0.707107
vn -0.92388 0 -0.382683
vn -0.92388 0 0.382683
vn 0.92388 0 -0.382683
vn 0.92388 0 0.382683
vn -0.382683 0 -0.92388
vn -0.382683 0 0.92388
vn 0.382683 0 -0.92388
vn 0.382683 0 0.92388
vn -0.397273 0.9177 0
vn 0.397273 -0.9177 0
vn 0.397273 0.9177 0
vn -0.397273 -0.9177 0
vn 0 0.9177 -0.397273
vn 0 -0.9177 0.397273
vn 0 0.9177 0.397273
vn 0 -0.9177 -0.397273
vn -0.440932 0.897541 0
vn 0.440932 -0.897541 0
vn 0.440932 0.897541 0
vn -0.440932 -0.897541 0
vn 0 0.897541 -0.440932
vn 0 -0.897541 0.440932
vn 0 0.897541 0.440932
vn 0 -0.897541 -0.440932
# water_flow
vt 0.563476562 0.860351562
vt 0.579101562 0.860351562
vt 0.579101562 0.874240458
vt 0.563476562 0.874240458
# water_still
vt 0.967773438 0.930664062
vt 0.983398438 0.930664062
vt 0.983398438 0.946289062
vt 0.967773438 0.946289062
v -1 0 -1
v -1 0 0
v -1 0.888889 0
v -1 0.888889 -1
v 0 0 0
v 0 0 -1
v 0 0.888889 -1
v 0 0.888889 0
v -1 0 1
v -1 0.888889 1
v -1 0.888889 0
v 0 0 1
v 0 0.888889 1
v 0 0.888889 0
v -1 0 2
v -1 0.888889 2
v -1 0.888889 1
v 0 0 2
v 0 0.888889 2
v 0 0.888889 1
v 1 0 0
v 1 0 -1
v 0 0.888889 -1
v 1 0.888889 -1
v 0 0.888889 0
v 1 0.888889 0
v 1 0 1
v 0 0.888889 1
v 1 0.888889 1
v 1 0.888889 0
v 0 0.888889 0
v 1 0 2
v 0 0.888889 2
v 1 0.888889 2
v 1 0.888889 1
v 0 0.888889 1
v 2 0 0
v 2 0 -1
v 1 0.888889 -1
v 2 0.888889 -1
v 2 0.888889 0
v 1 0.888889 0
v 2 0 1
v 2 0.888889 0
v 2 0.888889 1
v 1 0.888889 1
v 1 0.888889 0
v 2 0 2
v 2 0.888889 1
v 2 0.888889 2
v 1 0.888889 2
v 1 0.888889 1

usemtl MC_material
f 2/2/1 3/3/1 4/4/1 1/1/1
f 2/5/2 1/8/2 6/7/2 5/6/2
f 1/2/3 4/3/3 7/4/3 6/1/3
f 3/5/5 8/6/5 7/7/5 4/8/5
f 9/2/1 10/3/1 11/4/1 2/1/1
f 9/5/2 2/8/2 5/7/2 12/6/2
f 10/5/5 13/6/5 14/7/5 11/8/5
f 15/2/1 16/3/1 17/4/1 9/1/1
f 15/5/2 9/8/2 12/7/2 18/6/2
f 16/5/5 19/6/5 20/7/5 17/8/5
f 15/1/6 18/2/6 19/3/6 16/4/6
f 5/5/2 6/8/2 22/7/2 21/6/2
f 6/2/3 23/3/3 24/4/3 22/1/3
f 25/5/5 26/6/5 24/7/5 23/8/5
f 12/5/2 5/8/2 21/7/2 27/6/2
f 28/5/5 29/6/5 30/7/5 31/8/5
f 18/5/2 12/8/2 27/7/2 32/6/2
f 33/5/5 34/6/5 35/7/5 36/8/5
f 18/1/6 32/2/6 34/3/6 33/4/6
f 21/5/2 22/8/2 38/7/2 37/6/2
f 22/2/3 39/3/3 40/4/3 38/1/3
f 37/1/4 38/2/4 40/3/4 41/4/4
f 42/5/5 41/6/5 40/7/5 39/8/5
f 27/5/2 21/8/2 37/7/2 43/6/2
f 43/1/4 37/2/4 44/3/4 45/4/4
f 46/5/5 45/6/5 44/7/5 47/8/5
f 32/5/2 27/8/2 43/7/2 48/6/2
f 48/1/4 43/2/4 49/3/4 50/4/4
f 51/5/5 50/6/5 49/7/5 52/8/5
f 32/1/6 48/2/6 50/3/6 51/4/6
